if (_typeface_js && _typeface_js.loadFace) _typeface_js.loadFace({"glyphs":{"ο":{"x_min":6,"x_max":727,"ha":781,"o":"m 392 688 q 633 615 539 688 q 727 397 727 542 q 610 107 727 233 q 335 -18 494 -18 q 96 53 186 -18 q 6 272 6 125 q 12 350 6 314 q 46 460 18 386 q 174 611 74 535 q 392 688 274 688 m 212 196 q 235 94 212 139 q 307 49 258 49 q 463 201 412 49 q 514 489 514 353 q 491 585 514 543 q 418 626 469 626 q 294 535 330 626 q 242 381 258 444 q 219 280 226 318 q 212 196 212 242 "},"S":{"x_min":-36.171875,"x_max":693.171875,"ha":692,"o":"m 27 284 l 41 278 q 115 125 63 179 q 262 71 166 71 q 372 105 325 71 q 420 200 420 139 q 337 337 420 265 q 177 478 255 410 q 93 667 93 568 q 190 871 93 794 q 416 949 287 949 q 554 933 486 949 q 693 886 622 917 q 658 790 676 844 q 630 704 640 735 l 615 707 q 548 821 597 779 q 427 863 499 863 q 328 831 370 863 q 287 743 287 799 q 368 600 287 668 q 529 468 450 532 q 614 284 614 384 q 509 64 614 145 q 261 -17 405 -17 q -36 61 98 -17 q 27 284 -1 162 "},"/":{"x_min":-44.4375,"x_max":438.890625,"ha":385,"o":"m -44 -124 l 359 1027 l 438 1027 l 34 -124 l -44 -124 "},"Τ":{"x_min":52.78125,"x_max":809.828125,"ha":696,"o":"m 263 574 l 309 823 q 177 823 266 823 q 52 823 87 823 q 69 877 63 838 q 75 927 75 917 q 249 927 122 927 q 440 927 376 927 q 633 927 504 927 q 809 927 762 927 q 795 895 801 915 q 789 856 789 875 l 789 816 q 548 828 669 828 q 448 421 490 633 q 384 0 407 208 q 315 6 352 2 q 256 9 277 9 q 188 4 226 9 q 129 0 150 0 q 197 256 168 126 q 263 574 227 386 "},"ϕ":{"x_min":6,"x_max":970,"ha":1033,"o":"m 6 275 q 135 567 6 468 q 461 667 265 667 q 511 977 492 817 l 590 973 q 664 973 614 973 q 720 973 714 973 l 681 818 l 645 657 q 876 569 782 644 q 970 361 970 493 q 838 77 970 173 q 515 -18 707 -18 q 476 -202 496 -105 q 456 -373 456 -298 l 375 -365 q 247 -373 312 -365 q 330 -6 296 -181 q 103 70 200 -6 q 6 275 6 147 m 528 56 q 713 165 660 56 q 766 427 766 275 q 730 531 766 489 q 631 589 695 574 l 528 56 m 449 591 l 418 591 q 257 474 307 591 q 207 228 207 358 q 343 60 207 93 l 449 591 "},"y":{"x_min":-129.34375,"x_max":656.78125,"ha":603,"o":"m -30 -364 q -71 -366 -50 -364 q -129 -373 -91 -368 q -41 -268 -75 -312 q 30 -162 -7 -223 l 123 -10 q 93 242 105 154 q 65 428 81 330 q 16 663 48 525 l 129 663 q 190 663 155 663 q 254 667 224 663 q 263 481 254 570 q 292 264 273 392 l 391 429 q 444 528 420 479 q 510 667 469 577 l 573 659 q 614 661 590 659 q 656 667 638 664 q 404 271 485 400 q 224 -29 323 143 q 41 -373 124 -201 q 4 -366 22 -369 q -30 -364 -12 -364 "},"≈":{"x_min":118,"x_max":1018,"ha":1136,"o":"m 1018 524 q 891 458 954 483 q 765 433 829 433 q 566 477 704 433 q 373 522 429 522 q 236 488 297 522 q 118 416 176 455 l 118 560 q 254 632 191 607 q 390 658 318 658 q 577 613 444 658 q 759 569 711 569 q 868 588 812 569 q 1018 671 923 607 l 1018 524 m 1018 251 q 893 183 955 208 q 765 158 830 158 q 566 202 704 158 q 373 247 429 247 q 243 217 295 247 q 118 141 191 188 l 118 288 q 252 357 188 332 q 386 383 316 383 q 572 338 444 383 q 759 294 699 294 q 897 325 838 294 q 1018 396 955 356 l 1018 251 "},"Π":{"x_min":0,"x_max":1025,"ha":1025,"o":"m 638 205 l 716 578 q 736 676 729 640 q 761 817 743 712 l 579 817 l 406 817 l 356 608 l 280 237 q 261 119 270 190 q 247 0 251 47 q 174 7 205 4 q 122 10 143 10 q 55 5 91 10 q 0 0 19 0 q 84 344 51 204 q 144 630 116 483 q 188 927 172 776 q 415 927 272 927 q 601 927 559 927 q 823 927 675 927 q 1025 927 972 927 q 945 621 984 783 q 877 299 906 460 q 833 0 848 139 q 767 6 802 2 q 711 10 731 10 q 644 5 681 10 q 587 0 606 0 l 638 205 "},"ΐ":{"x_min":-11,"x_max":625,"ha":393,"o":"m 129 667 q 244 660 189 660 q 305 663 267 660 q 351 667 343 667 q 271 333 304 490 q 213 3 239 176 l 110 3 q 41 3 89 3 q -9 3 -6 3 q 69 351 32 176 q 129 667 107 526 m 71 963 q 128 939 104 963 q 152 881 152 915 q 131 821 152 845 q 73 798 110 798 q 14 821 39 798 q -11 881 -11 845 q 13 938 -11 914 q 71 963 37 963 m 167 758 l 276 931 q 324 996 304 974 q 376 1019 344 1019 q 428 967 428 1019 q 413 924 428 945 q 376 886 398 903 l 221 758 l 167 758 m 544 963 q 601 939 577 963 q 625 881 625 915 q 603 823 625 849 q 547 798 581 798 q 488 822 515 798 q 461 881 461 846 q 484 939 461 915 q 544 963 508 963 "},"g":{"x_min":-94,"x_max":706.78125,"ha":707,"o":"m 108 38 q 51 75 73 49 q 29 135 29 102 q 71 221 29 192 q 178 263 114 250 l 178 274 q 82 336 118 296 q 46 433 46 376 q 134 611 46 546 q 340 676 222 676 q 432 676 386 676 q 544 676 479 676 q 639 676 580 676 q 706 676 698 676 q 694 641 698 658 q 687 604 690 624 l 562 604 q 629 473 629 553 q 533 301 629 360 q 316 243 437 243 l 297 243 q 244 248 280 243 q 205 235 222 248 q 189 200 189 223 q 323 132 189 157 q 532 76 458 108 q 606 -63 606 44 q 485 -292 606 -209 q 211 -375 364 -375 q 0 -323 93 -375 q -94 -162 -94 -272 q -38 -34 -94 -79 q 107 28 17 11 l 108 38 m 239 406 q 256 334 239 363 q 314 306 273 306 q 407 377 379 306 q 435 523 435 448 q 416 594 435 564 q 359 623 397 623 q 289 587 311 623 q 248 488 268 552 q 239 406 243 446 m 46 -152 q 97 -262 46 -222 q 221 -303 148 -303 q 365 -261 300 -303 q 431 -144 431 -220 q 352 -28 431 -52 q 152 -4 273 -4 q 75 -63 104 -27 q 46 -152 46 -100 "},"²":{"x_min":-38.5,"x_max":464,"ha":493,"o":"m -26 400 q 229 595 144 519 q 314 769 314 671 q 295 831 314 806 q 240 856 276 856 q 178 820 197 856 q 153 735 158 785 l 147 728 q 109 762 122 749 q 64 808 96 775 q 259 902 140 902 q 401 870 339 902 q 464 765 464 838 q 343 582 464 660 q 151 463 223 504 q 305 463 208 463 q 422 463 402 463 q 393 357 401 412 l 247 357 q 104 357 200 357 q -38 357 8 357 q -26 400 -26 375 "},"Κ":{"x_min":0.5,"x_max":943.5625,"ha":813,"o":"m 376 706 l 336 504 l 519 671 q 631 777 582 724 q 768 932 679 829 l 850 926 q 900 928 881 926 q 943 932 919 930 l 940 918 q 776 771 867 853 q 640 647 686 689 q 507 517 594 604 q 664 199 582 358 l 768 0 q 704 4 747 0 q 638 8 661 8 q 571 4 617 8 q 501 0 525 0 q 406 228 443 143 q 317 407 369 312 l 286 268 q 246 0 260 128 q 172 7 204 4 q 119 10 140 10 q 56 5 92 10 q 0 0 19 0 q 84 316 40 150 q 158 644 128 482 q 188 932 188 806 q 250 927 204 931 q 311 923 296 923 q 381 927 342 923 q 435 932 421 931 q 402 831 414 878 q 376 706 390 784 "},"ë":{"x_min":3,"x_max":675,"ha":714,"o":"m 336 -18 q 100 60 197 -18 q 3 275 3 139 q 118 563 3 442 q 400 684 233 684 q 594 618 522 684 q 667 431 667 553 q 662 371 667 401 q 655 324 658 342 l 403 324 l 225 324 q 222 299 222 312 q 222 276 222 285 l 222 260 q 272 124 222 172 q 411 77 323 77 q 607 143 515 77 l 622 125 q 569 32 589 72 q 336 -18 451 -18 m 326 974 q 392 946 364 974 q 420 878 420 918 q 393 812 420 840 q 326 785 367 785 q 259 812 287 785 q 231 878 231 839 q 258 946 231 918 q 326 974 286 974 m 580 974 q 647 946 619 974 q 675 878 675 918 q 647 812 675 839 q 581 785 620 785 q 514 812 542 785 q 486 878 486 839 q 513 946 486 918 q 580 974 541 974 m 365 396 l 461 396 q 477 512 477 446 q 455 588 477 553 q 397 622 433 622 q 294 555 329 622 q 239 396 260 488 l 365 396 "},"e":{"x_min":3,"x_max":667,"ha":714,"o":"m 337 -18 q 100 60 197 -18 q 3 275 3 139 q 118 564 3 443 q 400 685 233 685 q 594 620 522 685 q 667 431 667 555 q 655 324 667 382 l 403 324 l 224 324 l 224 260 q 275 125 224 174 q 414 77 326 77 q 514 94 464 77 q 608 145 564 111 l 624 125 q 572 32 592 78 q 455 -5 511 7 q 337 -18 400 -18 m 365 396 l 463 396 q 472 452 468 419 q 477 512 477 486 q 455 588 477 553 q 396 624 433 624 q 292 555 328 624 q 239 396 255 486 q 315 396 271 396 q 365 396 358 396 "},"ό":{"x_min":6,"x_max":734,"ha":781,"o":"m 392 688 q 633 615 539 688 q 727 397 727 542 q 610 107 727 233 q 335 -18 494 -18 q 96 53 186 -18 q 6 272 6 125 q 12 350 6 314 q 46 460 18 386 q 174 611 74 535 q 392 688 274 688 m 373 758 l 578 971 q 620 1005 598 992 q 665 1019 642 1019 q 713 995 692 1019 q 734 946 734 971 q 717 907 734 923 q 674 874 701 891 l 439 758 l 373 758 m 212 196 q 235 94 212 139 q 307 49 258 49 q 463 201 412 49 q 514 489 514 353 q 491 585 514 543 q 418 626 469 626 q 294 535 330 626 q 242 381 258 444 q 219 280 226 318 q 212 196 212 242 "},"J":{"x_min":-172.5,"x_max":442.78125,"ha":456,"o":"m -172 -150 q -90 -141 -132 -150 q 12 -60 -16 -123 q 90 254 41 2 l 134 500 q 174 736 159 632 q 190 932 190 840 q 256 927 220 927 q 320 927 292 927 q 380 928 346 927 q 442 932 413 929 q 385 712 413 839 q 336 463 358 585 q 284 164 315 341 q 167 -119 253 -13 q -140 -225 80 -225 q -157 -190 -150 -209 q -172 -150 -165 -172 "},"»":{"x_min":-23.609375,"x_max":611.109375,"ha":696,"o":"m 8 0 q -5 25 1 13 q -23 47 -12 36 q 75 181 29 129 q 198 314 122 233 q 88 619 127 464 q 112 640 100 626 q 137 667 125 654 q 222 489 176 579 q 326 304 269 398 q 168 155 255 239 q 8 0 80 72 m 293 0 q 279 24 286 12 q 259 47 272 36 q 357 175 297 105 q 483 314 418 245 q 418 466 445 391 q 375 619 390 542 q 397 640 384 626 q 420 667 411 654 q 611 304 513 469 q 507 207 581 276 q 395 101 433 137 q 293 0 358 65 "},"©":{"x_min":72,"x_max":1064,"ha":1138,"o":"m 1064 487 q 918 140 1064 287 q 572 -6 773 -6 q 221 140 370 -6 q 72 490 72 287 q 220 837 72 690 q 569 985 369 985 q 917 836 770 985 q 1064 487 1064 688 m 155 491 q 276 199 155 323 q 567 75 398 75 q 858 197 734 75 q 982 488 982 319 q 861 781 982 659 q 569 904 740 904 q 277 781 399 904 q 155 491 155 659 m 683 596 q 650 667 683 638 q 573 697 616 697 q 470 638 501 697 q 439 499 439 579 q 468 355 439 422 q 563 289 497 289 q 687 397 668 289 l 815 397 q 738 248 807 304 q 572 192 669 192 q 376 275 450 192 q 303 482 303 358 q 372 695 303 604 q 559 786 441 786 q 725 735 652 786 q 809 596 797 684 l 683 596 "},"ώ":{"x_min":6,"x_max":1056,"ha":1119,"o":"m 248 -12 q 71 52 137 -12 q 6 227 6 116 q 76 465 6 347 q 251 665 146 582 q 301 665 266 665 q 354 665 336 665 q 416 666 394 665 q 450 668 439 668 q 274 437 339 562 q 210 173 210 312 q 228 89 210 125 q 289 53 246 53 q 410 188 378 53 q 461 511 441 323 l 572 511 l 685 511 q 633 337 653 418 q 600 167 613 256 l 600 131 l 600 95 q 650 54 610 58 q 795 172 754 54 q 837 422 837 290 q 818 544 837 487 q 761 668 799 601 q 813 665 803 665 q 853 665 824 665 q 906 665 871 665 q 958 665 940 665 q 1030 549 1004 609 q 1056 424 1056 490 q 946 121 1056 256 q 673 -14 837 -14 q 555 13 607 -14 q 483 101 504 41 q 381 17 444 47 q 248 -12 318 -12 m 546 759 l 750 972 q 794 1007 772 994 q 839 1019 815 1019 q 885 996 864 1019 q 906 947 906 972 q 890 908 906 924 q 848 875 874 892 l 612 759 l 546 759 "},"≥":{"x_min":169,"x_max":965,"ha":1136,"o":"m 965 571 l 965 457 l 172 200 l 172 337 l 727 512 l 172 690 l 172 826 l 965 571 m 965 132 l 965 0 l 169 0 l 169 132 l 965 132 "},"^":{"x_min":31.9375,"x_max":458.328125,"ha":393,"o":"m 401 756 l 280 886 l 101 756 l 31 756 l 238 1003 l 351 1003 l 458 756 l 401 756 "},"«":{"x_min":30.5625,"x_max":665.28125,"ha":696,"o":"m 348 668 q 364 635 362 639 q 381 621 366 632 q 280 490 341 561 q 156 354 219 419 q 220 197 197 261 q 266 47 244 133 q 243 26 255 38 q 220 0 231 13 q 129 182 173 97 q 30 364 86 268 q 184 507 106 433 q 348 668 262 582 m 631 668 q 665 621 644 642 q 566 488 623 554 q 440 354 509 422 q 500 209 473 284 q 551 47 527 134 q 529 27 540 38 q 504 0 518 16 q 408 195 448 118 q 313 364 368 273 q 631 668 472 507 "},"D":{"x_min":-4.28125,"x_max":999,"ha":1038,"o":"m 183 932 q 255 928 237 928 q 295 928 273 928 q 440 928 352 928 q 541 928 527 928 q 871 846 744 928 q 999 574 999 764 q 818 152 999 300 q 352 4 637 4 q 237 4 315 4 q 131 4 159 4 q -4 1 62 4 q 80 329 45 184 q 141 624 115 475 q 183 932 167 773 m 340 86 q 649 218 537 86 q 761 551 761 351 q 690 766 761 689 q 481 843 619 843 l 409 843 q 319 466 359 659 q 255 94 279 273 q 304 88 276 91 q 340 86 333 86 "},"w":{"x_min":22.28125,"x_max":1076.4375,"ha":1021,"o":"m 22 664 l 138 664 l 252 664 q 252 473 252 562 q 275 228 252 384 q 494 664 386 435 l 584 664 l 682 664 l 682 381 l 682 227 l 819 463 q 863 546 847 513 q 920 664 880 579 l 1000 664 l 1076 664 q 859 338 959 505 q 677 2 759 171 l 594 2 l 508 2 q 508 170 508 103 q 487 416 508 238 q 375 219 431 324 q 263 1 318 114 l 198 1 l 82 1 q 66 318 82 159 q 22 664 51 478 "},"$":{"x_min":-1.453125,"x_max":734.265625,"ha":748,"o":"m -1 86 q 35 177 18 131 q 68 270 52 222 l 93 265 q 137 134 93 187 q 259 63 181 81 l 323 368 q 149 495 195 433 q 104 626 104 557 q 199 836 104 765 q 439 907 295 907 q 453 1015 446 961 l 499 1015 l 549 1015 l 520 901 q 734 821 637 883 q 704 758 714 783 q 671 667 694 733 l 641 667 q 594 773 628 728 q 503 830 560 818 l 441 540 q 606 425 543 490 q 669 263 669 359 q 568 50 669 122 q 323 -21 467 -21 q 298 -164 306 -89 l 249 -164 l 203 -164 q 218 -118 213 -136 q 244 -11 223 -100 q 118 14 180 -11 q -1 86 56 40 m 480 202 q 456 276 480 244 q 392 327 432 308 l 334 61 q 436 102 393 61 q 480 202 480 144 m 430 835 q 321 799 367 835 q 276 701 276 764 q 305 629 276 662 q 375 576 334 596 l 430 835 "},"‧":{"x_min":137,"x_max":368,"ha":458,"o":"m 253 681 q 334 648 301 681 q 368 568 368 616 q 333 484 368 518 q 251 450 299 450 q 170 483 203 450 q 137 566 137 516 q 170 647 137 614 q 253 681 203 681 "},"\\":{"x_min":61.109375,"x_max":323.609375,"ha":385,"o":"m 245 -124 l 61 1027 l 137 1027 l 323 -124 l 245 -124 "},"Ι":{"x_min":8.65625,"x_max":451.71875,"ha":458,"o":"m 261 0 q 196 5 248 0 q 122 10 144 10 q 55 5 89 10 q 8 0 22 1 q 95 325 53 162 q 164 632 137 488 q 192 932 192 777 q 270 925 239 928 q 323 923 301 923 q 393 927 354 923 q 451 931 432 931 q 336 485 387 745 q 261 0 285 226 "},"Ύ":{"x_min":-44.71875,"x_max":1216.71875,"ha":1108,"o":"m 534 80 l 573 259 l 601 391 q 530 667 567 536 q 442 932 492 798 q 505 928 473 929 q 565 927 537 927 q 630 927 594 927 q 700 932 666 927 q 793 540 733 729 q 929 727 865 630 q 1058 932 994 823 q 1104 926 1077 929 q 1138 924 1132 924 q 1175 926 1155 924 q 1216 932 1195 929 q 829 405 1009 672 l 797 268 q 766 109 775 161 q 757 0 757 57 q 692 6 726 2 q 637 10 658 10 q 570 5 608 10 q 513 0 533 0 l 534 80 m -44 757 l 159 971 q 202 1005 180 992 q 246 1019 224 1019 q 294 995 273 1019 q 315 946 315 971 q 299 906 315 922 q 256 873 283 890 l 21 757 l -44 757 "},"’":{"x_min":72.609375,"x_max":424,"ha":374,"o":"m 72 517 l 226 849 q 274 930 250 908 q 326 952 297 952 q 393 931 362 952 q 424 878 424 911 q 406 822 424 851 q 365 765 389 792 l 100 493 l 72 517 "},"Ν":{"x_min":6.9375,"x_max":1033.328125,"ha":1038,"o":"m 194 945 l 265 939 q 340 941 316 939 q 379 945 365 944 q 467 795 398 911 q 559 640 536 680 q 651 494 583 601 l 779 283 l 841 615 q 895 932 872 766 l 962 925 q 1003 927 984 925 q 1033 932 1022 930 q 977 724 1002 827 q 927 501 952 620 l 858 159 l 825 -14 l 752 -6 q 714 -8 737 -6 q 673 -14 691 -11 q 533 237 605 109 q 404 458 461 365 q 263 679 347 552 l 208 384 q 151 -1 173 170 q 107 5 126 2 q 76 8 88 8 q 38 3 59 8 q 6 -1 18 0 q 122 472 73 227 q 194 945 172 718 "},"-":{"x_min":4.171875,"x_max":405.5625,"ha":444,"o":"m 37 421 l 198 421 q 319 421 245 421 q 405 421 393 421 q 383 332 391 375 q 370 250 375 290 q 284 250 354 250 q 180 250 213 250 q 91 250 152 250 q 4 250 30 250 q 24 331 16 288 q 37 421 31 373 "},"Q":{"x_min":36,"x_max":1080,"ha":1116,"o":"m 412 -9 q 137 120 238 13 q 36 403 36 227 q 195 790 36 629 q 578 952 355 952 q 938 855 796 952 q 1080 548 1080 758 q 966 202 1080 359 q 672 4 853 45 q 792 -44 735 -22 q 913 -89 849 -66 l 1050 -134 l 1048 -158 q 974 -219 1009 -186 q 905 -296 939 -252 q 674 -156 805 -232 q 412 -9 542 -80 m 282 361 q 336 156 282 237 q 511 75 390 75 q 758 230 677 75 q 840 571 840 386 q 782 778 840 693 q 608 863 724 863 q 402 758 479 863 q 303 546 325 654 q 282 361 282 439 "},"ς":{"x_min":10,"x_max":654.5625,"ha":707,"o":"m 404 616 q 263 547 318 616 q 209 388 209 478 q 308 240 209 288 q 497 174 403 207 q 599 35 599 129 q 535 -123 599 -59 q 406 -238 472 -187 l 353 -191 q 417 -128 396 -152 q 438 -69 438 -103 q 411 -23 438 -41 q 349 3 385 -5 q 97 119 185 55 q 10 319 10 183 q 122 585 10 483 q 400 688 235 688 q 525 670 462 688 q 654 621 587 652 q 619 545 639 593 q 587 466 599 497 l 569 466 q 514 578 550 541 q 404 616 478 616 "},"M":{"x_min":-11.109375,"x_max":1213.890625,"ha":1231,"o":"m 222 933 q 265 927 240 930 q 309 924 291 924 q 348 927 326 924 q 391 933 370 930 q 480 610 436 761 q 579 309 525 459 l 866 698 l 1033 933 q 1090 927 1061 930 q 1123 924 1119 924 q 1169 928 1138 924 q 1213 933 1200 933 q 1138 598 1168 740 q 1085 306 1109 456 q 1047 0 1061 156 l 962 7 q 881 7 913 7 q 809 0 848 7 q 859 239 833 92 q 890 413 886 386 l 919 590 q 702 297 808 448 q 497 -11 597 147 l 415 -11 q 344 289 383 141 q 256 597 305 437 q 195 304 226 463 q 140 0 163 144 q 101 4 127 0 q 62 8 75 8 q 26 5 45 8 q -11 0 6 2 q 222 933 116 459 "},"Ψ":{"x_min":81,"x_max":1170.234375,"ha":1144,"o":"m 298 472 q 330 380 298 407 q 429 353 363 353 q 493 658 467 517 q 531 933 518 800 q 611 924 584 924 q 656 924 639 924 q 725 927 688 924 q 784 931 763 931 q 711 662 745 808 q 649 353 678 517 l 689 353 q 857 494 820 353 q 932 933 893 636 q 991 930 953 933 q 1049 927 1028 927 q 1120 927 1077 927 q 1170 927 1163 927 q 1129 758 1154 882 q 1081 533 1103 633 q 937 347 1059 432 q 629 263 816 263 q 610 130 620 196 q 595 0 600 64 q 532 5 579 0 q 463 10 484 10 q 398 5 434 10 q 342 0 361 0 q 383 154 375 125 q 407 263 391 183 q 181 322 281 263 q 81 500 81 381 q 83 551 81 535 q 94 611 85 567 l 132 794 q 143 854 136 815 q 156 927 150 893 q 224 927 181 927 q 275 927 267 927 q 334 928 300 927 q 393 933 367 929 q 316 653 335 753 q 298 472 298 553 "},"C":{"x_min":36,"x_max":969.671875,"ha":929,"o":"m 502 -21 q 165 89 295 -21 q 36 404 36 200 q 212 797 36 642 q 630 952 388 952 q 807 930 723 952 q 969 864 890 909 q 942 792 964 852 q 903 671 921 733 l 884 676 q 794 818 861 770 q 629 866 728 866 q 365 713 453 866 q 278 366 278 560 q 343 151 278 234 q 537 69 408 69 q 680 96 612 69 q 812 178 748 124 l 829 159 q 808 105 818 132 q 789 39 798 77 q 655 -6 729 8 q 502 -21 580 -21 "},"œ":{"x_min":6,"x_max":1163,"ha":1212,"o":"m 301 -19 q 84 55 162 -19 q 6 268 6 129 q 122 561 6 436 q 407 687 239 687 q 541 664 477 687 q 645 593 606 642 q 766 660 705 636 q 894 684 827 684 q 1088 621 1014 684 q 1163 440 1163 558 q 1163 385 1163 414 q 1156 324 1163 357 l 903 324 l 725 324 q 721 294 723 308 q 720 260 720 280 q 774 126 720 176 q 911 77 828 77 q 1107 143 1017 77 l 1124 125 q 1070 32 1092 78 q 961 -4 1018 9 q 847 -18 903 -18 q 695 4 765 -18 q 574 78 625 26 q 453 4 525 28 q 301 -19 381 -19 m 872 392 l 961 392 q 973 455 970 431 q 977 509 977 480 q 958 591 977 560 q 893 623 940 623 q 792 556 825 623 q 739 392 759 489 l 872 392 m 219 193 q 246 94 219 140 q 323 49 273 49 q 481 196 429 49 q 532 474 532 343 q 508 583 532 535 q 428 631 483 631 q 309 553 350 631 q 245 375 267 476 q 219 193 219 282 "},"!":{"x_min":40,"x_max":440,"ha":458,"o":"m 158 -17 q 74 16 109 -17 q 40 98 40 49 q 74 181 40 146 q 159 216 109 216 q 241 179 208 216 q 275 93 275 143 q 241 14 275 46 q 158 -17 208 -17 m 189 311 l 189 793 q 216 910 189 869 q 318 952 244 952 q 403 929 367 952 q 440 861 440 906 q 433 811 440 836 q 410 746 426 786 l 222 311 l 189 311 "},"ç":{"x_min":3,"x_max":661.109375,"ha":658,"o":"m 332 -14 q 98 60 193 -14 q 3 269 3 134 q 128 561 3 441 q 427 682 254 682 q 552 668 495 682 q 661 621 608 655 q 624 527 641 584 q 597 439 606 470 l 575 435 l 575 464 q 536 571 575 528 q 433 615 497 615 q 273 507 324 615 q 222 277 222 399 q 262 131 222 189 q 389 73 302 73 q 464 87 426 73 q 539 127 503 102 l 555 110 l 503 14 q 417 -6 460 1 q 332 -14 375 -14 m 92 -194 q 189 -229 154 -220 q 256 -239 225 -239 q 305 -225 283 -239 q 327 -184 327 -211 q 307 -145 327 -158 q 258 -132 287 -132 q 201 -139 231 -132 l 247 1 l 306 1 l 280 -75 l 322 -70 q 412 -99 377 -70 q 448 -181 448 -129 q 404 -276 448 -245 q 293 -308 361 -308 q 195 -291 251 -308 q 92 -251 138 -274 l 92 -194 "},"{":{"x_min":104,"x_max":588,"ha":682,"o":"m 588 845 l 539 845 q 494 837 515 845 q 462 817 472 829 q 447 793 452 804 q 441 754 443 782 l 441 713 l 441 553 q 414 424 441 465 q 304 354 388 382 q 412 288 384 336 q 441 154 441 240 l 441 -5 q 464 -105 441 -74 q 554 -137 488 -137 l 588 -137 l 588 -272 l 481 -272 q 343 -236 396 -272 q 280 -121 289 -201 l 280 -48 l 280 118 q 246 239 280 195 q 138 284 212 284 l 104 284 l 104 424 q 239 460 199 424 q 280 590 280 496 l 280 758 l 280 832 q 355 952 292 920 q 517 984 418 984 l 588 984 l 588 845 "},"X":{"x_min":-90.28125,"x_max":868.0625,"ha":803,"o":"m 195 314 l 311 446 q 223 685 272 564 q 119 933 175 806 q 186 927 150 927 q 250 927 222 927 q 313 927 276 927 q 379 933 350 927 q 423 786 398 863 q 477 631 448 709 q 695 933 590 777 q 781 925 738 928 q 825 929 795 925 q 868 933 854 933 q 739 797 808 872 q 613 655 670 722 l 511 530 q 587 299 563 364 q 625 192 611 234 l 694 0 q 626 6 666 6 q 558 6 586 6 q 498 4 531 6 q 433 0 465 3 q 395 166 416 81 q 350 332 375 250 q 213 171 276 249 q 84 0 151 93 q 38 6 61 4 q -2 9 16 9 q -45 6 -22 9 q -90 0 -69 3 q 52 154 1 99 q 195 314 102 209 "},"ô":{"x_min":6,"x_max":725,"ha":781,"o":"m 391 688 q 631 615 537 688 q 725 398 725 542 q 609 108 725 234 q 334 -18 494 -18 q 94 52 182 -18 q 6 272 6 122 q 40 445 6 354 q 173 612 74 536 q 391 688 273 688 m 594 758 l 473 888 l 294 758 l 225 758 l 433 1004 l 547 1004 l 651 758 l 594 758 m 214 194 q 236 94 214 140 q 307 49 258 49 q 463 201 412 49 q 514 487 514 353 q 491 586 514 544 q 418 628 469 628 q 293 534 330 628 q 241 378 255 441 q 221 285 229 336 q 214 194 214 235 "},"#":{"x_min":30.5625,"x_max":1019.453125,"ha":1050,"o":"m 620 975 l 520 700 l 684 700 l 783 975 l 930 975 l 831 700 l 1019 700 l 972 564 l 784 564 l 727 404 l 922 404 l 872 271 l 679 271 l 580 -5 l 433 -5 l 531 271 l 368 271 l 270 -5 l 122 -5 l 222 271 l 30 271 l 79 404 l 269 404 l 326 564 l 126 564 l 176 700 l 375 700 l 472 975 l 620 975 m 413 403 l 581 403 l 638 564 l 470 564 l 413 403 "},"ι":{"x_min":-9.71875,"x_max":351.390625,"ha":393,"o":"m 129 667 q 244 660 188 660 q 304 663 266 660 q 351 667 343 667 q 271 333 304 490 q 212 3 238 176 l 109 3 q 40 3 88 3 q -9 3 -6 3 q 69 351 31 176 q 129 667 106 526 "},"Ά":{"x_min":-93.34375,"x_max":785.671875,"ha":855,"o":"m 519 35 q 511 148 519 89 q 496 265 503 206 q 341 275 416 275 q 265 270 306 275 q 201 265 224 265 q 115 111 137 151 q 60 3 94 71 l -8 3 q -44 1 -22 3 q -93 0 -66 0 q 96 292 6 150 q 274 578 187 434 q 491 939 362 722 l 555 934 q 589 936 570 934 q 617 939 607 938 l 664 619 q 701 394 681 515 q 739 188 721 273 q 785 0 756 103 q 701 10 734 7 q 648 13 669 13 q 598 10 621 13 q 519 0 575 7 l 519 35 m -44 757 l 159 971 q 202 1005 180 992 q 246 1019 224 1019 q 294 995 273 1019 q 315 946 315 971 q 299 906 315 922 q 256 874 283 890 l 21 757 l -44 757 m 333 364 l 484 364 q 467 530 473 479 q 448 672 462 581 q 349 518 403 603 q 256 364 295 432 l 333 364 "},")":{"x_min":-86.4375,"x_max":359,"ha":445,"o":"m 359 473 q 248 87 359 262 q -53 -187 138 -87 l -86 -132 l -18 -82 q 153 196 99 26 q 208 551 208 366 q 189 751 208 660 q 124 922 171 842 l 171 957 q 313 731 267 844 q 359 473 359 617 "},"ε":{"x_min":-5,"x_max":590.453125,"ha":657,"o":"m 545 484 l 531 484 q 486 580 521 547 q 387 613 450 613 q 307 583 340 613 q 275 504 275 553 q 309 425 275 454 q 438 397 344 397 q 426 365 429 379 q 418 315 424 351 q 383 321 401 321 q 345 321 365 321 q 243 286 285 321 q 201 192 201 251 q 244 92 201 130 q 353 54 288 54 q 471 87 418 54 q 556 179 523 120 l 569 173 q 566 144 567 158 q 564 113 564 130 q 567 74 564 98 q 571 44 571 49 q 450 0 518 13 q 310 -14 382 -14 q 90 30 185 -14 q -5 186 -5 74 q 49 307 -5 265 q 188 359 103 350 q 117 414 143 381 q 92 494 92 447 q 173 636 92 589 q 358 684 255 684 q 477 663 419 684 q 590 606 536 643 q 564 542 571 558 q 545 484 557 527 "},"Δ":{"x_min":-93.0625,"x_max":786.109375,"ha":856,"o":"m 491 939 q 522 934 508 936 q 555 933 536 933 q 589 935 570 933 q 618 939 608 937 l 665 619 q 720 278 695 416 q 786 4 745 140 q 568 4 734 4 q 327 4 402 4 q 107 4 255 4 q -93 4 -40 4 q 100 298 22 174 q 268 567 179 422 q 491 939 356 712 m 256 115 q 408 115 316 115 q 513 115 500 115 l 498 252 q 448 672 476 467 q 313 461 380 573 l 119 115 l 256 115 "},"â":{"x_min":-10,"x_max":621,"ha":714,"o":"m 174 -14 q 42 32 94 -14 q -10 159 -10 79 q 60 319 -10 267 q 219 382 131 371 q 365 401 306 392 q 418 485 418 417 q 385 560 418 535 q 300 586 352 586 q 134 505 197 586 l 118 501 q 138 611 133 558 q 265 662 202 643 q 388 682 327 682 q 548 635 482 682 q 614 499 614 588 q 608 453 611 476 q 600 409 605 431 l 559 231 q 543 162 551 198 q 536 95 536 126 q 551 68 536 79 q 584 57 566 57 q 605 59 594 57 q 621 62 616 61 l 621 14 q 493 -10 562 -10 q 352 87 384 -10 q 280 11 326 37 q 174 -14 234 -14 m 561 756 l 440 886 l 259 756 l 191 756 l 398 1003 l 511 1003 l 618 756 l 561 756 m 189 177 q 205 115 189 141 q 255 90 222 90 q 356 194 336 90 q 383 327 377 299 q 249 290 302 327 q 189 177 195 253 "},"}":{"x_min":93,"x_max":579,"ha":683,"o":"m 125 984 q 322 956 243 984 q 401 832 401 928 l 401 758 l 401 590 q 418 491 401 533 q 480 432 435 449 q 524 426 500 428 q 579 424 549 424 l 579 284 q 442 250 481 284 q 403 118 403 217 l 403 -48 q 373 -203 403 -146 q 284 -267 343 -260 q 179 -275 225 -275 q 93 -275 133 -275 l 93 -137 q 201 -119 162 -137 q 240 -41 240 -102 l 240 -3 l 240 154 q 269 286 240 242 q 380 354 298 329 q 268 421 296 379 q 240 553 240 464 l 240 713 q 218 815 240 786 q 126 845 197 845 l 93 845 l 93 984 l 125 984 "},"‰":{"x_min":31,"x_max":1560,"ha":1579,"o":"m 297 911 q 446 861 383 911 q 509 727 509 812 q 427 548 509 621 q 239 475 346 475 q 92 524 154 475 q 31 657 31 573 q 55 763 31 703 q 147 867 79 823 q 297 911 214 911 m 127 -125 l 844 1016 l 927 1016 l 212 -125 l 127 -125 m 1349 413 q 1496 365 1432 413 q 1560 235 1560 317 q 1479 53 1560 128 q 1291 -22 1399 -22 q 1142 25 1202 -22 q 1083 160 1083 73 q 1106 262 1083 204 q 1198 366 1130 319 q 1349 413 1266 413 m 816 413 q 964 365 900 413 q 1028 235 1028 317 q 947 53 1028 128 q 758 -22 866 -22 q 611 25 672 -22 q 550 159 550 73 q 569 247 550 205 q 666 366 598 319 q 816 413 734 413 m 1216 111 q 1234 51 1216 75 q 1286 28 1252 28 q 1394 112 1360 28 q 1428 280 1428 196 q 1407 339 1428 319 q 1355 360 1387 360 q 1279 314 1308 360 q 1236 215 1250 269 q 1220 162 1225 186 q 1216 111 1216 139 m 164 610 q 182 553 164 578 q 232 528 201 528 q 341 611 307 528 q 376 782 376 694 q 356 838 376 814 q 306 862 336 862 q 228 820 256 862 q 187 729 201 778 q 168 662 172 681 q 164 610 164 643 m 686 111 q 702 50 686 73 q 755 28 719 28 q 861 112 827 28 q 896 280 896 196 q 877 337 896 314 q 825 360 858 360 q 750 316 779 360 q 708 230 722 273 q 690 162 695 186 q 686 111 686 137 "},"Ä":{"x_min":-94.546875,"x_max":832,"ha":856,"o":"m 518 34 q 510 149 518 89 q 497 270 503 210 q 405 270 445 270 q 341 270 365 270 q 268 268 317 270 q 201 266 219 266 q 95 72 115 109 q 59 3 76 35 l -8 3 q -56 3 -22 3 q -94 3 -90 3 q 95 293 5 150 q 273 579 186 435 q 490 939 361 723 q 531 933 520 933 q 555 933 541 933 q 584 934 573 933 q 616 939 595 935 l 665 619 q 718 302 690 463 q 784 0 746 141 q 716 7 762 3 q 647 12 669 12 q 601 10 617 12 q 518 0 584 9 l 518 34 m 481 1254 q 547 1226 519 1254 q 576 1160 576 1199 q 549 1093 576 1121 q 483 1066 523 1066 q 414 1093 442 1066 q 386 1160 386 1120 q 415 1226 386 1198 q 481 1254 444 1254 m 736 1254 q 803 1226 775 1254 q 832 1160 832 1199 q 804 1093 832 1121 q 736 1066 776 1066 q 669 1093 696 1066 q 642 1160 642 1120 q 669 1226 642 1198 q 736 1254 697 1254 m 331 365 l 484 365 q 448 673 468 542 q 333 494 367 549 q 256 365 299 440 l 331 365 "},"a":{"x_min":-10,"x_max":622,"ha":712,"o":"m 173 -14 q 41 31 92 -14 q -10 158 -10 77 q 60 320 -10 266 q 243 386 131 373 q 387 410 355 398 q 419 489 419 421 q 384 561 419 535 q 301 588 349 588 q 134 506 197 588 l 119 503 q 138 612 133 564 q 263 662 202 644 q 387 681 325 681 q 546 635 482 681 q 611 500 611 590 q 599 411 611 449 l 559 230 q 540 140 543 159 q 537 94 537 120 q 552 65 537 77 q 586 54 566 54 q 622 62 604 58 l 622 12 q 494 -12 560 -12 q 353 86 385 -12 q 280 10 326 34 q 173 -14 234 -14 m 189 176 q 205 114 189 140 q 255 89 222 89 q 328 124 309 89 q 384 328 348 159 q 249 291 302 328 q 189 176 195 254 "},"—":{"x_min":183.328125,"x_max":1127.78125,"ha":1367,"o":"m 204 404 l 1127 404 l 1105 261 l 183 261 l 204 404 "},"=":{"x_min":169,"x_max":969,"ha":1137,"o":"m 969 617 l 969 485 l 169 485 l 169 617 l 969 617 m 969 329 l 969 197 l 169 197 l 169 329 l 969 329 "},"N":{"x_min":6.9375,"x_max":1033.328125,"ha":1038,"o":"m 194 945 l 265 939 q 340 941 316 939 q 379 945 365 944 q 467 795 398 911 q 559 640 536 680 q 651 494 583 601 l 779 283 l 841 615 q 895 932 872 766 l 962 925 q 1003 927 984 925 q 1033 932 1022 930 q 977 724 1002 827 q 927 501 952 620 l 858 159 l 825 -14 l 752 -6 q 714 -8 737 -6 q 673 -14 691 -11 q 533 237 605 109 q 404 458 461 365 q 263 679 347 552 l 208 384 q 151 -1 173 170 q 107 5 126 2 q 76 8 88 8 q 38 3 59 8 q 6 -1 18 0 q 122 472 73 227 q 194 945 172 718 "},"ρ":{"x_min":-116.5625,"x_max":737,"ha":794,"o":"m 26 187 q 84 425 55 305 q 198 620 125 553 q 421 688 272 688 q 642 615 547 688 q 737 418 737 542 q 642 125 737 264 q 400 -14 547 -14 q 282 15 336 -14 q 201 101 227 45 q 141 -147 165 -34 q 108 -375 118 -259 q 5 -367 55 -367 q -116 -375 -54 -367 q -37 -84 -69 -209 q 26 187 -5 40 m 531 489 q 507 581 531 541 q 433 621 483 621 q 289 482 340 621 q 239 226 239 343 q 262 133 239 175 q 333 92 286 92 q 426 137 387 92 q 503 312 464 183 q 525 419 519 380 q 531 489 531 458 "},"2":{"x_min":-57.265625,"x_max":703,"ha":749,"o":"m -42 76 q 195 259 88 169 q 388 466 302 350 q 475 690 475 582 q 446 790 475 747 q 363 834 417 834 q 263 773 294 834 q 233 636 233 713 l 223 624 q 139 706 169 674 q 94 754 109 738 q 405 910 205 910 q 614 854 525 910 q 703 686 703 798 q 638 510 703 586 q 462 351 573 434 l 340 261 l 228 179 l 495 179 l 640 179 q 615 94 627 148 q 597 4 602 40 q 433 4 544 4 q 267 4 322 4 q 105 4 213 4 q -57 4 -3 4 q -42 76 -42 35 "},"ü":{"x_min":25,"x_max":771.9375,"ha":808,"o":"m 630 3 q 571 3 613 3 q 527 3 530 3 q 465 3 509 3 q 418 3 422 3 q 443 85 436 38 q 334 13 395 40 q 206 -14 272 -14 q 75 27 126 -14 q 25 148 25 69 q 29 207 25 176 q 43 274 34 238 l 77 426 q 100 531 90 476 q 122 666 109 585 l 230 666 l 348 666 q 270 375 301 501 q 239 180 239 249 q 256 117 239 141 q 311 94 273 94 q 349 105 331 94 q 468 245 439 151 q 517 501 498 340 l 546 666 l 658 666 l 771 666 q 630 3 687 341 m 365 974 q 432 946 404 974 q 460 878 460 918 q 433 811 460 837 q 366 785 407 785 q 299 811 327 785 q 272 878 272 837 q 299 945 272 917 q 365 974 326 974 m 621 974 q 687 946 659 974 q 715 878 715 918 q 688 811 715 837 q 621 785 662 785 q 553 811 581 785 q 526 878 526 837 q 553 946 526 918 q 621 974 581 974 "},"Z":{"x_min":-43,"x_max":899.828125,"ha":857,"o":"m -43 60 q 177 333 84 216 q 349 553 270 451 q 552 818 427 656 l 438 818 q 277 818 388 818 q 127 818 166 818 q 144 863 138 837 q 155 928 150 890 q 348 928 215 928 q 542 928 481 928 q 720 928 601 928 q 899 928 840 928 l 894 882 q 565 486 717 674 q 276 119 412 298 q 545 119 355 119 q 801 119 734 119 q 779 4 779 67 q 572 4 709 4 q 365 4 434 4 q 161 4 297 4 q -43 4 25 4 l -43 60 "},"u":{"x_min":25,"x_max":772.328125,"ha":810,"o":"m 629 -1 q 571 1 583 1 q 529 1 559 1 q 467 1 511 1 q 419 1 423 1 q 443 84 437 42 q 335 11 395 37 q 206 -14 275 -14 q 75 26 126 -14 q 25 147 25 67 q 27 188 25 173 q 43 273 29 202 l 77 426 q 102 544 90 475 q 120 669 113 613 q 229 664 169 664 q 348 669 294 664 q 270 374 301 501 q 239 179 239 247 q 256 116 239 140 q 311 93 273 93 q 386 122 332 93 q 470 245 441 151 q 519 501 500 338 l 547 667 q 602 667 565 667 q 658 667 640 667 q 724 667 679 667 q 772 667 769 667 q 696 345 732 511 q 629 -1 661 178 "},"k":{"x_min":-13.890625,"x_max":800,"ha":742,"o":"m 194 1025 q 305 1019 252 1019 q 423 1025 358 1019 q 356 766 386 893 l 275 389 l 300 382 l 448 505 q 527 575 497 546 q 615 667 556 604 q 661 661 637 664 q 705 659 686 659 q 747 661 723 659 q 791 667 772 664 l 800 657 q 636 540 712 599 q 472 403 559 480 q 652 3 552 197 q 577 3 626 3 q 522 3 529 3 q 453 3 495 3 q 404 3 411 3 q 359 143 383 75 q 297 307 336 211 l 259 307 q 227 143 236 188 q 202 0 218 98 q 138 3 177 0 q 93 7 100 7 q 31 3 69 7 q -13 0 -6 0 q 106 496 48 208 q 194 1025 163 785 "},"Η":{"x_min":-0.109375,"x_max":1024,"ha":1024,"o":"m 283 247 q 258 116 268 177 q 249 0 249 54 q 187 5 235 0 q 117 10 140 10 q 64 7 94 10 q 0 0 34 4 q 65 247 1 5 q 158 639 130 488 q 186 932 186 790 q 238 926 208 929 q 305 923 268 923 q 364 923 333 923 q 433 932 394 923 l 383 730 l 344 557 l 542 557 l 714 557 l 742 692 q 762 825 753 747 q 775 932 772 903 q 838 925 810 928 q 897 923 867 923 q 955 925 924 923 q 1024 932 987 928 q 911 484 957 717 q 835 0 865 251 q 773 5 819 0 q 705 10 726 10 q 642 5 685 10 q 586 0 600 0 q 615 102 599 40 q 640 209 632 165 l 690 450 l 501 450 l 324 450 l 283 247 "},"Α":{"x_min":-93.5,"x_max":785.671875,"ha":856,"o":"m 519 35 q 511 148 519 89 q 496 265 503 206 q 341 275 416 275 q 265 270 306 275 q 200 265 224 265 q 115 111 137 151 q 60 3 94 71 l -8 3 q -44 1 -22 3 q -93 0 -67 0 q 96 292 6 150 q 274 578 187 434 q 491 939 362 722 l 555 934 q 589 936 570 934 q 617 939 607 938 l 664 619 q 701 394 681 515 q 739 188 721 273 q 785 0 756 103 q 701 10 734 7 q 648 13 669 13 q 598 10 621 13 q 519 0 575 7 l 519 35 m 332 364 l 484 364 q 467 530 473 479 q 448 672 462 581 q 349 518 403 604 q 256 364 295 432 l 332 364 "},"ß":{"x_min":-18,"x_max":728,"ha":802,"o":"m 57 318 l 100 541 q 164 781 123 676 q 284 956 205 886 q 490 1027 364 1027 q 655 987 583 1027 q 728 860 728 947 q 633 705 728 782 q 539 573 539 629 q 632 441 539 540 q 726 255 726 343 q 634 63 726 145 q 426 -18 542 -18 q 272 26 341 -18 q 310 111 295 72 q 336 198 325 150 l 357 186 q 390 95 357 134 q 475 57 424 57 q 543 87 516 57 q 570 159 570 118 q 472 318 570 225 q 374 484 374 412 q 494 662 374 564 q 615 846 615 761 q 584 923 615 894 q 505 953 553 953 q 406 904 448 953 q 321 680 363 855 q 250 323 279 505 q 207 1 222 140 l 52 1 l -18 1 q 18 149 0 68 q 57 318 37 230 "},"é":{"x_min":3,"x_max":667,"ha":714,"o":"m 336 -18 q 100 60 197 -18 q 3 275 3 139 q 118 563 3 442 q 400 684 233 684 q 594 618 522 684 q 667 431 667 553 q 662 371 667 401 q 655 324 658 342 l 403 324 l 224 324 q 222 299 222 312 q 222 276 222 285 l 222 260 q 272 124 222 172 q 411 77 323 77 q 607 143 515 77 l 622 125 q 569 32 589 72 q 336 -18 451 -18 m 298 758 l 503 968 q 546 1006 529 995 q 590 1017 562 1017 q 640 996 621 1017 q 660 945 660 975 q 647 909 660 920 q 625 887 632 891 q 600 874 618 884 l 365 758 l 298 758 m 365 396 l 461 396 q 477 512 477 446 q 455 588 477 553 q 397 622 433 622 q 290 553 327 622 q 238 396 254 484 l 365 396 "},"s":{"x_min":-40.453125,"x_max":548.71875,"ha":581,"o":"m 12 230 l 30 227 q 95 102 52 151 q 209 54 137 54 q 277 75 248 54 q 307 134 307 97 q 180 277 307 197 q 54 451 54 358 q 131 617 54 553 q 312 681 208 681 q 447 657 377 681 q 548 593 518 634 q 511 523 529 562 q 480 444 494 484 l 462 451 q 417 565 462 516 q 306 614 373 614 q 240 593 269 614 q 211 538 211 573 q 350 404 211 486 q 489 220 489 322 q 406 48 489 111 q 208 -14 323 -14 q 75 6 140 -14 q -40 66 10 26 q -12 142 -26 98 q 12 230 1 186 "},"B":{"x_min":3.953125,"x_max":793,"ha":832,"o":"m 187 932 q 261 930 244 930 q 301 930 278 930 q 415 930 342 930 q 510 930 488 930 q 709 884 626 930 q 793 733 793 839 q 718 567 793 632 q 536 488 644 503 l 536 480 q 669 426 613 480 q 726 294 726 373 q 617 67 726 132 q 333 3 508 3 q 196 3 281 3 q 94 3 110 3 l 3 3 q 86 311 42 136 q 158 649 130 486 q 187 932 187 813 m 572 716 q 540 812 572 776 q 448 848 508 848 l 402 848 q 380 754 391 807 q 366 681 370 702 l 339 531 q 508 573 445 531 q 572 716 572 615 m 287 89 q 443 152 385 89 q 501 315 501 215 q 455 423 501 397 q 323 449 410 449 l 290 287 l 251 89 l 287 89 "},"…":{"x_min":36,"x_max":989,"ha":1179,"o":"m 134 188 q 206 158 176 188 q 237 86 237 129 q 206 15 237 44 q 134 -14 176 -14 q 65 15 94 -14 q 36 86 36 44 q 65 157 36 126 q 134 188 94 188 m 887 188 q 958 158 928 188 q 989 86 989 129 q 958 15 989 44 q 887 -14 928 -14 q 817 15 846 -14 q 788 86 788 44 q 817 158 788 128 q 887 188 847 188 m 511 188 q 582 158 551 188 q 614 86 614 128 q 583 15 614 44 q 511 -14 553 -14 q 442 15 471 -14 q 413 86 413 44 q 442 157 413 126 q 511 188 471 188 "},"?":{"x_min":117,"x_max":587,"ha":601,"o":"m 232 -17 q 150 14 183 -17 q 117 95 117 46 q 148 180 117 146 q 227 215 179 215 q 313 181 277 215 q 350 98 350 148 q 315 16 350 49 q 232 -17 280 -17 m 440 356 q 424 319 432 341 q 410 273 415 296 l 354 273 q 207 318 270 273 q 144 444 144 364 q 271 627 144 530 q 399 793 399 724 q 371 852 399 829 q 307 875 344 875 q 240 857 278 875 q 190 818 202 840 l 161 818 q 179 872 174 852 q 184 916 184 891 q 342 951 254 951 q 513 893 439 951 q 587 741 587 835 q 544 609 587 647 q 398 504 502 572 q 295 390 295 437 q 313 351 295 366 q 358 336 332 336 q 392 342 376 336 q 426 361 408 348 l 440 356 "},"H":{"x_min":0,"x_max":1025,"ha":1025,"o":"m 280 239 q 261 119 270 191 q 247 0 251 47 q 174 7 205 4 q 122 10 143 10 q 55 5 91 10 q 0 0 19 0 q 84 343 51 204 q 144 629 116 483 q 188 932 172 776 q 253 926 218 929 q 309 922 288 922 q 377 926 340 922 q 436 930 415 930 q 406 824 419 875 q 384 726 394 773 l 347 557 l 538 557 l 711 557 l 740 695 q 763 837 751 751 q 776 932 775 923 q 849 925 818 928 q 901 923 880 923 q 968 927 931 923 q 1025 931 1004 931 q 945 621 984 783 q 877 299 906 459 q 833 0 848 139 q 770 6 804 2 q 718 10 737 10 q 651 6 686 10 q 587 0 616 2 l 638 205 l 691 450 q 594 450 662 450 q 498 450 526 450 q 412 450 470 450 q 325 450 354 450 l 280 239 "},"ν":{"x_min":21.046875,"x_max":642,"ha":638,"o":"m 21 667 q 82 661 59 663 q 130 659 105 659 q 187 661 157 659 q 248 667 218 664 q 274 398 265 482 q 305 190 283 315 l 379 316 q 434 429 416 382 q 453 532 453 476 q 448 578 453 555 q 432 642 443 601 q 523 649 480 642 q 629 672 565 656 q 637 640 633 660 q 642 607 642 621 q 589 447 642 533 q 430 214 536 361 q 296 0 323 67 q 253 4 276 0 q 208 8 229 8 q 165 4 189 8 q 121 0 141 0 q 75 348 98 192 q 21 667 53 504 "},"î":{"x_min":-9.71875,"x_max":458.328125,"ha":393,"o":"m 130 667 q 197 663 155 667 q 244 660 238 660 q 306 663 268 660 q 350 667 344 667 q 270 330 306 505 q 213 3 234 155 q 161 3 195 3 q 109 3 126 3 q 43 3 87 3 q -9 3 -1 3 q 48 253 20 129 q 91 452 76 376 q 130 667 106 528 m 401 756 l 280 886 l 101 756 l 31 756 l 238 1004 l 351 1004 l 458 756 l 401 756 "},"c":{"x_min":4,"x_max":662.5,"ha":658,"o":"m 333 -14 q 97 58 191 -14 q 4 269 4 131 q 129 562 4 443 q 429 681 255 681 q 554 667 495 681 q 662 624 612 654 q 627 538 644 589 q 597 440 611 486 l 575 438 l 575 467 q 536 573 575 531 q 435 616 498 616 q 273 508 325 616 q 222 278 222 401 q 263 130 222 189 q 388 71 304 71 q 465 85 427 71 q 538 126 504 100 l 554 111 l 504 12 q 419 -7 461 0 q 333 -14 377 -14 "},"¶":{"x_min":174,"x_max":737.890625,"ha":590,"o":"m 504 968 l 737 968 l 725 910 l 667 910 l 475 3 l 417 3 l 608 910 l 499 910 l 307 4 l 249 4 l 365 558 q 228 601 282 558 q 174 717 174 645 q 265 882 174 797 q 504 968 357 968 "},"β":{"x_min":-99.671875,"x_max":774,"ha":795,"o":"m 53 277 q 134 672 96 494 q 271 938 172 850 q 507 1027 369 1027 q 696 963 619 1027 q 774 787 774 899 q 721 632 774 696 q 580 538 669 568 q 687 448 650 509 q 723 309 723 387 q 630 78 723 170 q 394 -14 536 -14 q 288 1 339 -14 q 201 51 237 16 l 169 -104 l 119 -371 q 10 -363 65 -363 q -99 -371 -45 -363 q -21 -62 -60 -239 q 53 277 17 114 m 389 575 l 419 575 q 550 653 511 575 q 589 835 589 732 q 568 918 589 880 q 507 956 548 956 q 425 919 451 956 q 305 584 368 853 q 242 198 242 315 q 267 106 242 144 q 344 69 293 69 q 477 162 437 69 q 517 363 517 255 q 479 458 517 431 q 369 486 442 486 l 389 575 "},"Μ":{"x_min":-11.109375,"x_max":1213.890625,"ha":1231,"o":"m 222 933 q 265 927 240 930 q 309 924 291 924 q 348 927 326 924 q 391 933 370 930 q 480 610 436 761 q 579 309 525 459 l 866 698 l 1033 933 q 1090 927 1061 930 q 1123 924 1119 924 q 1169 928 1138 924 q 1213 933 1200 933 q 1138 598 1168 740 q 1085 306 1109 456 q 1047 0 1061 156 l 962 7 q 881 7 913 7 q 809 0 848 7 q 859 239 833 92 q 890 413 886 386 l 919 590 q 702 297 808 448 q 497 -11 597 147 l 415 -11 q 344 289 383 141 q 256 597 305 437 q 195 304 226 463 q 140 0 163 144 q 101 4 127 0 q 62 8 75 8 q 26 5 45 8 q -11 0 6 2 q 222 933 116 459 "},"Ό":{"x_min":-44.5,"x_max":1289,"ha":1325,"o":"m 243 393 q 401 787 243 623 q 784 952 559 952 q 1150 858 1011 952 q 1289 547 1289 764 q 1120 147 1289 308 q 712 -14 952 -14 q 581 -7 636 -14 q 446 34 527 0 q 304 170 365 69 q 243 393 243 270 m -44 757 l 159 971 q 202 1005 180 992 q 247 1019 224 1019 q 294 995 273 1019 q 315 946 315 971 q 299 906 315 922 q 256 874 283 890 l 22 757 l -44 757 m 490 361 q 544 156 490 237 q 719 75 598 75 q 967 230 886 75 q 1049 571 1049 386 q 991 778 1049 693 q 816 863 933 863 q 610 758 687 863 q 511 546 533 654 q 490 361 490 439 "},"Ή":{"x_min":-44.71875,"x_max":1302.5,"ha":1303,"o":"m 558 239 q 538 119 548 191 q 524 0 528 47 q 451 7 483 4 q 399 10 420 10 q 333 5 369 10 q 277 0 296 0 q 361 343 328 204 q 421 629 394 483 q 466 932 449 776 q 530 926 495 929 q 587 922 566 922 q 655 926 617 922 q 713 930 692 930 q 684 824 696 875 q 662 726 671 773 l 624 557 l 816 557 l 988 557 l 1017 695 q 1040 837 1028 751 q 1053 932 1052 923 q 1126 925 1095 928 q 1178 923 1158 923 q 1245 927 1209 923 q 1302 931 1281 931 q 1223 621 1262 783 q 1155 299 1184 459 q 1110 0 1126 139 q 1048 6 1081 2 q 995 10 1015 10 q 928 6 963 10 q 865 0 894 2 l 916 205 l 969 450 q 871 450 940 450 q 776 450 803 450 q 689 450 748 450 q 602 450 631 450 l 558 239 m -44 757 l 159 971 q 202 1005 180 992 q 246 1019 224 1019 q 294 995 273 1019 q 315 946 315 971 q 299 906 315 922 q 256 873 283 890 l 21 757 l -44 757 "},"•":{"x_min":208,"x_max":801,"ha":1008,"o":"m 503 796 q 714 709 627 796 q 801 500 801 622 q 714 290 801 377 q 503 204 627 204 q 294 290 381 204 q 208 500 208 377 q 294 709 208 622 q 503 796 381 796 "},"¥":{"x_min":9.71875,"x_max":818.0625,"ha":749,"o":"m 230 261 q 120 261 176 261 q 9 261 65 261 l 26 333 l 244 333 l 263 420 l 44 420 l 58 492 l 250 492 q 181 715 206 641 q 122 886 156 789 q 173 882 140 886 q 225 878 206 878 q 279 882 243 878 q 334 887 315 887 q 423 540 366 714 q 673 887 544 689 q 706 881 688 883 q 740 878 723 878 q 777 881 756 878 q 818 887 798 883 q 638 679 708 761 q 490 492 569 597 q 590 492 523 492 q 691 492 658 492 l 677 420 l 456 420 l 434 333 l 658 333 l 644 261 q 531 261 588 261 q 419 261 475 261 q 393 125 405 192 q 375 0 381 58 q 318 5 355 0 q 269 10 281 10 q 213 5 250 10 q 166 0 176 0 q 198 124 179 44 q 230 261 218 204 "},"(":{"x_min":57,"x_max":505.625,"ha":446,"o":"m 57 294 q 169 683 57 505 q 472 957 282 860 l 505 901 q 276 611 345 789 q 207 215 207 433 q 226 19 207 111 q 290 -152 245 -72 l 244 -187 q 102 38 148 -75 q 57 294 57 152 "},"U":{"x_min":71,"x_max":1014.171875,"ha":1006,"o":"m 305 927 q 364 927 330 927 q 426 931 398 927 q 361 705 394 822 q 306 473 328 587 q 285 260 285 358 q 334 139 285 183 q 460 96 383 96 q 585 120 528 96 q 692 203 643 144 q 778 392 741 262 q 835 665 814 521 q 873 929 855 810 l 946 929 l 1014 929 q 912 503 946 656 q 868 307 878 350 q 831 196 855 271 q 691 52 807 121 q 428 -17 576 -17 q 171 43 272 -17 q 71 250 71 104 q 95 441 71 308 q 147 718 119 574 q 182 931 175 863 q 247 927 216 927 q 305 927 278 927 "},"γ":{"x_min":-11,"x_max":716.609375,"ha":669,"o":"m 349 62 q 299 -163 319 -65 q 263 -373 279 -262 l 187 -365 q 47 -372 123 -365 q 134 -67 109 -168 q 160 153 160 33 q 133 425 160 287 q 30 563 107 563 q 8 560 16 563 q -11 556 0 558 l -11 636 q 64 672 33 663 q 145 681 95 681 q 288 596 254 681 q 333 423 323 511 q 343 233 343 335 q 579 666 484 439 l 649 666 l 716 666 q 593 480 656 582 q 481 293 530 378 q 349 62 431 208 "},"α":{"x_min":6,"x_max":851.5,"ha":890,"o":"m 278 -14 q 79 71 153 -14 q 6 284 6 157 q 128 567 6 450 q 415 684 250 684 q 654 539 582 684 q 687 665 675 600 l 769 665 l 851 665 q 789 521 816 590 q 718 340 761 451 q 797 1 744 170 l 634 1 l 564 1 q 557 68 564 34 q 548 122 551 102 q 428 21 496 56 q 278 -14 360 -14 m 426 628 q 258 475 308 628 q 209 173 209 323 q 231 84 209 118 q 308 50 254 50 q 479 169 420 62 q 538 397 538 276 q 530 503 538 457 q 508 577 522 550 q 468 619 494 604 q 426 628 449 628 "},"F":{"x_min":0.171875,"x_max":735.15625,"ha":674,"o":"m 186 929 q 314 929 229 929 q 441 929 398 929 q 589 929 491 929 q 735 929 686 929 q 714 873 722 905 q 706 813 706 842 q 600 825 653 820 q 500 830 548 830 l 402 830 q 389 789 394 811 q 371 704 383 766 l 340 548 l 466 548 q 640 559 551 548 q 621 433 621 500 q 529 442 582 442 q 439 442 476 442 q 390 442 409 442 q 323 440 371 442 l 284 265 q 250 0 264 143 q 184 6 219 2 q 126 10 148 10 q 58 5 96 10 q 0 0 21 0 q 114 488 66 262 q 186 929 161 714 "},"­":{"x_min":-37.5,"x_max":666.671875,"ha":683,"o":"m -13 404 l 666 404 l 645 261 l -37 261 l -13 404 "},":":{"x_min":51,"x_max":368,"ha":458,"o":"m 168 217 q 250 183 217 217 q 284 101 284 150 q 248 20 284 54 q 167 -14 213 -14 q 84 18 118 -14 q 51 100 51 51 q 85 182 51 147 q 168 217 120 217 m 253 681 q 334 648 301 681 q 368 568 368 616 q 333 484 368 518 q 251 450 299 450 q 170 483 203 450 q 137 566 137 516 q 170 647 137 614 q 253 681 203 681 "},"Χ":{"x_min":-90.28125,"x_max":868.0625,"ha":803,"o":"m 195 314 l 311 446 q 223 685 272 564 q 119 933 175 806 q 186 927 150 927 q 250 927 222 927 q 313 927 276 927 q 379 933 350 927 q 423 786 398 863 q 477 631 448 709 q 695 933 590 777 q 781 925 738 928 q 825 929 795 925 q 868 933 854 933 q 739 797 808 872 q 613 655 670 722 l 511 530 q 587 299 563 364 q 625 192 611 234 l 694 0 q 626 6 666 6 q 558 6 586 6 q 498 4 531 6 q 433 0 465 3 q 395 166 416 81 q 350 332 375 250 q 213 171 276 249 q 84 0 151 93 q 38 6 61 4 q -2 9 16 9 q -45 6 -22 9 q -90 0 -69 3 q 52 154 1 99 q 195 314 102 209 "},"*":{"x_min":137.890625,"x_max":653.21875,"ha":684,"o":"m 356 656 q 248 603 282 619 q 174 562 214 586 q 164 625 174 596 q 137 688 155 654 q 341 711 229 688 q 257 766 302 740 q 164 814 212 792 q 250 914 217 862 q 309 832 279 869 q 380 754 339 794 q 380 871 380 797 q 380 958 380 944 q 445 937 415 944 q 511 931 475 931 q 467 838 487 886 q 433 739 447 790 q 614 836 517 776 q 653 710 619 769 q 559 704 604 710 q 451 686 514 699 q 539 628 500 651 q 626 583 578 605 q 578 537 597 558 q 539 484 560 515 q 491 552 512 525 q 414 644 469 579 q 406 548 406 590 q 406 436 406 505 q 339 456 373 448 q 277 464 306 464 q 356 656 324 557 "},"°":{"x_min":264,"x_max":603,"ha":684,"o":"m 454 1069 q 559 1032 516 1069 q 603 934 603 996 q 543 799 603 856 q 405 742 483 742 q 305 783 347 742 q 264 882 264 825 q 319 1014 264 960 q 454 1069 375 1069 m 415 786 q 497 831 466 786 q 528 931 528 876 q 508 998 528 971 q 450 1026 489 1026 q 368 977 397 1026 q 340 872 340 929 q 367 803 348 820 q 415 786 385 786 "},"V":{"x_min":53.890625,"x_max":930.28125,"ha":813,"o":"m 399 298 q 608 618 512 456 q 771 932 705 780 l 844 925 q 892 928 860 925 q 930 932 923 932 q 634 472 776 702 q 358 0 492 242 q 318 8 334 5 q 285 11 302 11 q 245 6 267 11 q 208 0 223 1 q 143 474 178 255 q 53 928 108 694 l 187 928 l 315 928 q 326 733 315 831 q 355 533 337 634 q 399 298 373 431 "},"Ξ":{"x_min":-50,"x_max":872.21875,"ha":844,"o":"m 440 553 q 594 553 497 553 q 719 553 691 553 q 695 473 704 515 q 679 379 686 431 q 534 379 630 379 q 404 379 438 379 q 258 379 355 379 q 126 379 161 379 q 150 460 140 413 q 168 558 161 507 q 293 553 238 553 q 440 553 348 553 m 470 749 q 283 749 409 749 q 112 749 156 749 q 136 841 125 787 q 152 928 148 894 q 331 928 212 928 q 512 928 451 928 q 691 928 572 928 q 872 928 811 928 q 848 840 859 889 q 831 749 837 792 q 643 749 769 749 q 470 749 516 749 m 368 187 q 577 187 444 187 q 747 187 711 187 q 720 92 731 138 q 705 4 709 45 q 516 4 643 4 q 327 4 390 4 q 138 4 265 4 q -50 4 12 4 q -25 99 -37 48 q -8 187 -13 150 q 188 187 56 187 q 368 187 320 187 "}," ":{"x_min":0,"x_max":0,"ha":375},"Ϋ":{"x_min":41.28125,"x_max":813.4375,"ha":705,"o":"m 131 80 l 169 260 l 198 391 q 128 663 166 532 q 41 932 91 794 q 160 924 107 924 q 296 932 227 924 q 389 540 331 725 q 654 932 540 739 q 688 927 661 930 q 734 924 714 924 q 813 932 775 924 q 618 676 717 811 q 425 405 518 542 l 393 268 q 352 0 364 130 q 296 5 339 0 q 234 10 252 10 q 171 6 202 10 q 109 0 139 2 q 124 49 123 44 q 131 80 126 54 m 373 1254 q 438 1226 410 1254 q 466 1160 466 1198 q 439 1093 466 1121 q 373 1066 413 1066 q 303 1092 331 1066 q 276 1160 276 1118 q 304 1226 276 1199 q 373 1254 332 1254 m 625 1254 q 691 1226 663 1254 q 719 1160 719 1198 q 693 1093 719 1120 q 627 1066 667 1066 q 558 1092 586 1066 q 531 1160 531 1118 q 558 1226 531 1198 q 625 1254 586 1254 "},"0":{"x_min":24,"x_max":728,"ha":749,"o":"m 453 909 q 655 828 583 909 q 728 615 728 747 q 618 183 728 385 q 297 -18 509 -18 q 89 71 155 -18 q 24 307 24 161 q 28 385 24 340 q 60 550 33 429 q 189 790 86 671 q 453 909 293 909 m 213 182 q 232 88 213 127 q 300 50 251 50 q 424 179 372 50 q 505 480 476 308 q 535 727 535 652 q 513 805 535 773 q 448 837 491 837 q 335 749 367 837 q 271 522 304 661 q 226 316 239 383 q 213 182 213 250 "},"”":{"x_min":72.21875,"x_max":733,"ha":684,"o":"m 72 518 l 227 850 q 275 929 251 907 q 327 952 298 952 q 395 932 365 952 q 425 878 425 913 q 406 821 425 851 q 365 765 388 790 l 101 494 l 72 518 m 381 518 l 537 850 q 576 922 554 893 q 635 952 599 952 q 702 931 671 952 q 733 878 733 911 q 714 819 733 851 q 674 765 695 788 l 411 494 l 381 518 "},"@":{"x_min":61,"x_max":1307,"ha":1367,"o":"m 582 73 q 419 132 476 73 q 363 300 363 192 q 455 556 363 439 q 684 674 547 674 q 773 651 734 674 q 844 586 811 629 l 879 654 l 999 654 l 898 254 l 894 229 q 913 193 894 205 q 958 181 931 181 q 1119 290 1056 181 q 1183 506 1183 400 q 1060 774 1183 670 q 771 879 937 879 q 354 737 526 879 q 183 353 183 596 q 327 19 183 139 q 691 -100 471 -100 q 899 -65 790 -100 q 1092 25 1008 -30 l 1145 -49 q 691 -204 946 -204 q 245 -55 430 -204 q 61 349 61 93 q 262 806 61 623 q 740 989 463 989 q 1136 858 965 989 q 1307 507 1307 727 q 1196 205 1307 340 q 922 71 1086 71 l 895 71 q 820 90 848 71 q 779 181 793 110 q 693 100 740 127 q 582 73 646 73 m 695 578 q 554 487 602 578 q 507 294 507 396 q 534 208 507 246 q 608 170 562 170 q 714 213 670 170 q 775 322 758 257 l 811 466 q 775 546 807 515 q 695 578 744 578 "},"Ί":{"x_min":-44.71875,"x_max":728.734375,"ha":736,"o":"m 538 0 q 473 5 525 0 q 399 10 421 10 q 333 5 366 10 q 285 0 299 1 q 372 325 330 162 q 441 632 414 487 q 469 932 469 776 q 547 925 516 928 q 600 923 578 923 q 670 927 631 923 q 728 931 709 931 q 613 485 664 744 q 538 0 562 226 m -44 757 l 159 971 q 202 1005 180 992 q 246 1019 224 1019 q 294 995 273 1019 q 315 946 315 971 q 299 906 315 922 q 256 874 283 890 l 21 757 l -44 757 "},"ö":{"x_min":6,"x_max":725,"ha":781,"o":"m 391 688 q 631 615 537 688 q 725 398 725 542 q 609 108 725 234 q 334 -18 494 -18 q 94 52 182 -18 q 6 272 6 122 q 40 445 6 354 q 173 612 74 536 q 391 688 273 688 m 348 974 q 414 946 386 974 q 442 878 442 918 q 415 811 442 837 q 348 785 389 785 q 280 811 308 785 q 253 878 253 837 q 280 946 253 918 q 348 974 308 974 m 602 974 q 668 946 639 974 q 698 878 698 918 q 671 811 698 837 q 603 785 645 785 q 536 811 564 785 q 509 878 509 837 q 536 945 509 917 q 602 974 563 974 m 214 194 q 236 94 214 140 q 307 49 258 49 q 463 201 412 49 q 514 487 514 353 q 491 586 514 544 q 418 628 469 628 q 303 551 344 628 q 241 378 262 475 q 221 285 229 336 q 214 194 214 235 "},"i":{"x_min":-9.546875,"x_max":386,"ha":393,"o":"m 129 667 q 194 663 152 667 q 244 660 236 660 q 304 663 266 660 q 351 667 343 667 q 271 333 304 490 q 212 3 238 176 q 155 3 195 3 q 109 3 114 3 q 41 3 89 3 q -9 3 -6 3 q 69 351 32 176 q 129 667 107 526 m 276 1019 q 352 987 319 1019 q 386 910 386 955 q 354 835 386 866 q 277 805 322 805 q 202 836 233 805 q 171 912 171 867 q 201 987 171 955 q 276 1019 232 1019 "},"Β":{"x_min":3.953125,"x_max":793,"ha":832,"o":"m 187 932 q 261 930 244 930 q 301 930 278 930 q 415 930 342 930 q 510 930 488 930 q 709 884 626 930 q 793 733 793 839 q 718 567 793 632 q 536 488 644 503 l 536 480 q 669 426 613 480 q 726 294 726 373 q 617 67 726 132 q 333 3 508 3 q 196 3 281 3 q 94 3 110 3 l 3 3 q 86 311 42 136 q 158 649 130 486 q 187 932 187 813 m 572 716 q 540 812 572 776 q 448 848 508 848 l 402 848 q 380 754 391 807 q 366 681 370 702 l 339 531 q 508 573 445 531 q 572 716 572 615 m 287 89 q 443 152 385 89 q 501 315 501 215 q 455 423 501 397 q 323 449 410 449 l 290 287 l 251 89 l 287 89 "},"≤":{"x_min":169,"x_max":965,"ha":1136,"o":"m 963 690 l 409 512 l 963 337 l 963 200 l 172 457 l 172 571 l 963 826 l 963 690 m 965 132 l 965 0 l 169 0 l 169 132 l 965 132 "},"υ":{"x_min":33,"x_max":743,"ha":810,"o":"m 743 490 q 612 137 743 288 q 283 -14 481 -14 q 108 30 183 -14 q 33 167 33 74 q 75 447 33 248 q 118 669 118 647 q 169 665 140 665 q 226 665 199 665 q 300 665 263 665 q 345 669 331 668 q 270 387 306 538 q 234 153 234 235 q 247 85 234 112 q 299 51 261 57 q 488 161 427 51 q 550 412 550 271 q 537 537 550 477 q 497 657 524 597 q 582 657 536 657 q 706 669 629 657 q 733 584 724 631 q 743 490 743 537 "},"]":{"x_min":-100,"x_max":441.671875,"ha":446,"o":"m 219 -158 l 61 -158 l -100 -158 q -83 -78 -87 -119 q -32 -83 -61 -83 q 22 -83 -4 -83 l 70 -83 q 172 371 122 122 q 266 863 223 619 l 208 863 q 156 860 179 863 q 119 857 133 858 l 134 930 l 280 930 l 441 930 q 318 364 375 639 q 219 -158 262 90 "},"m":{"x_min":-13.953125,"x_max":1131,"ha":1207,"o":"m 126 667 q 176 665 143 667 q 226 664 209 664 q 290 664 245 664 q 336 664 334 664 q 321 621 324 633 q 312 581 318 608 q 421 653 361 625 q 545 681 481 681 q 661 653 613 681 q 718 563 708 625 q 812 647 758 614 q 925 681 866 681 q 1072 642 1014 681 q 1131 520 1131 604 q 1086 241 1131 421 q 1033 0 1041 61 q 968 3 1007 0 q 922 7 929 7 q 858 3 898 7 q 809 0 818 0 q 899 348 881 263 q 918 492 918 434 l 918 518 q 847 573 904 573 q 725 489 762 573 q 665 279 688 406 l 616 0 q 566 1 599 0 q 515 3 533 3 q 449 3 494 3 q 401 3 404 3 q 481 290 455 185 q 508 493 508 395 q 494 550 508 527 q 448 573 480 573 q 287 445 319 573 q 209 0 255 318 q 144 3 183 0 q 98 7 105 7 q 34 3 74 7 q -13 0 -5 0 q 58 317 26 163 q 126 667 90 472 "},"χ":{"x_min":-150.828125,"x_max":737.171875,"ha":693,"o":"m 573 667 l 633 667 q 693 667 651 667 q 737 667 735 667 q 629 530 684 601 q 521 387 574 458 l 394 212 l 455 3 l 495 -133 q 542 -263 514 -193 q 583 -371 569 -334 q 456 -366 527 -366 q 333 -374 395 -366 q 325 -261 333 -315 q 302 -137 317 -206 l 259 17 l 128 -163 q 8 -374 64 -250 q -60 -366 -23 -366 q -150 -374 -105 -366 l -53 -254 l 56 -103 l 227 122 l 152 368 q 99 517 122 468 q 21 567 75 567 q -5 561 3 562 l -5 636 q 86 674 53 665 q 153 683 120 683 q 277 590 244 683 q 320 464 310 497 l 360 320 l 473 483 q 573 667 535 573 "},"8":{"x_min":28,"x_max":735,"ha":749,"o":"m 274 507 q 185 571 218 527 q 153 674 153 615 q 232 845 153 781 q 422 909 312 909 q 641 859 547 909 q 735 696 735 810 q 677 556 735 613 q 535 483 619 499 l 533 469 q 636 398 598 450 q 673 279 673 347 q 574 61 673 140 q 332 -18 475 -18 q 118 46 208 -18 q 28 229 28 111 q 96 403 28 335 q 274 494 165 472 l 274 507 m 239 183 q 256 95 239 132 q 319 53 273 58 q 436 136 405 53 q 467 325 467 219 q 446 412 467 376 q 379 449 426 449 q 294 401 321 449 q 254 280 268 354 q 239 183 239 232 m 346 615 q 367 552 350 577 q 422 527 384 527 q 514 599 486 527 q 542 747 542 671 q 522 813 542 786 q 465 841 503 841 q 401 800 430 841 q 359 713 372 759 q 346 615 346 667 "},"ί":{"x_min":-9.546875,"x_max":546,"ha":393,"o":"m 129 667 q 244 660 189 660 q 305 663 266 660 q 351 667 343 667 q 271 333 304 490 q 212 3 239 176 l 109 3 q 41 3 89 3 q -9 3 -6 3 q 69 351 32 176 q 129 667 107 526 m 186 758 l 390 971 q 439 1009 418 999 q 477 1019 459 1019 q 525 995 504 1019 q 546 946 546 971 q 530 907 546 923 q 487 874 514 891 l 251 758 l 186 758 "},"Ζ":{"x_min":-43,"x_max":899.828125,"ha":857,"o":"m -43 60 q 177 333 84 216 q 349 553 270 451 q 552 818 427 656 l 438 818 q 277 818 388 818 q 127 818 166 818 q 144 863 138 837 q 155 928 150 890 q 348 928 215 928 q 542 928 481 928 q 720 928 601 928 q 899 928 840 928 l 894 882 q 565 486 717 674 q 276 119 412 298 q 545 119 355 119 q 801 119 734 119 q 779 4 779 67 q 572 4 709 4 q 365 4 434 4 q 161 4 297 4 q -43 4 25 4 l -43 60 "},"R":{"x_min":-0.28125,"x_max":840,"ha":847,"o":"m 188 929 q 251 929 209 929 q 313 929 292 929 q 442 929 365 929 q 530 929 519 929 q 750 879 660 929 q 840 708 840 829 q 767 530 840 591 q 567 457 694 470 q 658 234 610 346 q 763 0 706 122 q 683 7 723 4 q 616 11 642 11 q 545 7 580 11 q 490 0 510 2 q 421 233 453 129 q 352 431 390 337 l 316 431 l 283 267 q 264 141 276 229 q 246 0 252 53 q 171 7 203 4 q 119 10 138 10 q 54 5 90 10 q 0 0 19 0 q 85 321 40 151 q 159 647 130 492 q 188 929 188 801 m 370 509 q 544 558 474 509 q 615 706 615 607 q 573 805 615 770 q 466 841 531 841 l 405 841 l 377 725 l 328 509 l 370 509 "},"×":{"x_min":184.71875,"x_max":969.453125,"ha":1136,"o":"m 576 500 l 877 800 l 969 707 l 669 407 l 969 107 l 877 13 l 576 314 l 276 13 l 184 107 l 484 407 l 184 707 l 276 800 l 576 500 "},"o":{"x_min":6,"x_max":727,"ha":781,"o":"m 392 688 q 633 615 539 688 q 727 397 727 542 q 610 107 727 233 q 335 -18 494 -18 q 96 53 186 -18 q 6 272 6 125 q 12 350 6 314 q 46 460 18 386 q 174 611 74 535 q 392 688 274 688 m 212 196 q 235 94 212 139 q 307 49 258 49 q 463 201 412 49 q 514 489 514 353 q 491 585 514 543 q 418 626 469 626 q 294 535 330 626 q 242 381 258 444 q 219 280 226 318 q 212 196 212 242 "},"5":{"x_min":3.953125,"x_max":733.046875,"ha":748,"o":"m 95 251 l 122 245 q 158 109 122 167 q 270 51 195 51 q 393 130 356 51 q 430 306 430 209 q 396 429 430 380 q 292 478 363 478 q 226 462 257 478 q 160 418 195 446 q 133 438 151 427 q 106 454 116 448 q 163 670 138 563 q 208 888 188 776 l 556 888 l 733 888 q 700 792 710 833 q 690 706 690 751 l 480 706 l 270 706 l 221 524 q 291 549 245 540 q 374 559 337 559 q 572 499 489 559 q 655 332 655 440 q 550 76 655 171 q 280 -18 445 -18 q 125 2 201 -18 q 3 67 49 22 q 48 153 28 114 q 95 251 67 191 "},"7":{"x_min":35,"x_max":809,"ha":749,"o":"m 35 8 q 231 246 132 124 q 435 499 330 368 l 601 713 l 130 713 q 151 797 143 750 q 160 888 160 844 l 484 888 l 809 888 l 809 843 q 509 455 649 662 q 232 0 369 247 q 182 4 215 0 q 132 8 148 8 q 87 5 112 8 q 39 0 62 2 l 35 8 "},"K":{"x_min":0.5,"x_max":943.5625,"ha":813,"o":"m 376 706 l 336 504 l 519 671 q 631 777 582 724 q 768 932 679 829 l 850 926 q 900 928 881 926 q 943 932 919 930 l 940 918 q 776 771 867 853 q 640 647 686 689 q 507 517 594 604 q 664 199 582 358 l 768 0 q 704 4 747 0 q 638 8 661 8 q 571 4 617 8 q 501 0 525 0 q 406 228 443 143 q 317 407 369 312 l 286 268 q 246 0 260 128 q 172 7 204 4 q 119 10 140 10 q 56 5 92 10 q 0 0 19 0 q 84 316 40 150 q 158 644 128 482 q 188 932 188 806 q 250 927 204 931 q 311 923 296 923 q 381 927 342 923 q 435 932 421 931 q 402 831 414 878 q 376 706 390 784 "},",":{"x_min":-84.9375,"x_max":272,"ha":375,"o":"m 66 123 q 117 209 91 185 q 177 233 144 233 q 240 212 209 233 q 272 162 272 191 q 254 97 272 131 q 210 34 237 63 l -54 -254 l -84 -228 l 66 123 "},"d":{"x_min":21,"x_max":875.609375,"ha":826,"o":"m 472 91 q 255 -17 392 -17 q 82 57 144 -17 q 21 245 21 131 q 111 544 21 407 q 356 681 201 681 q 558 568 488 681 l 606 768 q 656 1026 635 897 q 758 1020 714 1020 q 875 1026 815 1020 q 783 687 828 865 q 706 333 739 508 q 657 0 674 159 q 600 3 635 0 q 558 7 565 7 q 501 3 536 7 q 458 0 465 0 l 472 91 m 235 192 q 262 109 235 142 q 337 76 289 76 q 482 204 438 76 q 527 457 527 333 q 501 542 527 507 q 426 578 476 578 q 309 500 343 578 q 260 369 275 422 q 240 278 246 316 q 235 192 235 240 "},"¨":{"x_min":81,"x_max":741.78125,"ha":685,"o":"m 434 934 l 279 600 q 235 522 254 546 q 178 499 216 499 q 112 521 144 499 q 81 572 81 543 q 96 625 81 600 q 140 686 111 650 l 405 957 l 434 934 m 741 934 l 587 600 q 544 524 564 549 q 487 499 525 499 q 421 521 454 499 q 389 572 389 543 q 406 628 389 599 q 448 686 423 658 l 714 957 l 741 934 "},"E":{"x_min":-3.21875,"x_max":732.546875,"ha":699,"o":"m 184 928 q 312 928 227 928 q 439 928 396 928 q 586 928 489 928 q 732 928 684 928 q 709 872 717 900 q 702 812 702 844 q 598 824 650 819 q 498 829 546 829 l 399 829 q 382 768 391 802 q 366 703 373 734 l 338 547 l 457 547 q 561 547 496 547 q 638 547 625 547 q 624 494 630 533 q 619 431 619 455 q 529 435 585 431 q 456 440 473 440 l 317 440 l 278 265 q 253 118 262 188 q 443 118 316 118 q 591 118 570 118 q 574 64 582 101 q 562 4 566 27 q 414 4 516 4 q 267 4 313 4 q 132 4 223 4 q -3 4 42 4 q 108 456 60 216 q 184 928 156 697 "},"Y":{"x_min":40.109375,"x_max":813.71875,"ha":706,"o":"m 131 80 l 170 260 l 198 391 q 127 667 165 536 q 40 932 90 798 q 102 928 70 929 q 162 927 134 927 q 227 927 191 927 q 297 932 263 927 q 390 540 330 729 q 526 727 462 630 q 655 932 591 823 q 701 926 674 929 q 735 924 729 924 q 772 926 752 924 q 813 932 792 929 q 426 405 606 672 l 394 268 q 363 109 372 161 q 354 0 354 57 q 289 6 323 2 q 234 10 255 10 q 167 5 205 10 q 110 0 130 0 l 131 80 "},"\"":{"x_min":53,"x_max":399,"ha":453,"o":"m 181 958 l 181 586 l 53 586 l 53 958 l 181 958 m 399 958 l 399 586 l 271 586 l 271 958 l 399 958 "},"ê":{"x_min":3,"x_max":667,"ha":714,"o":"m 336 -18 q 100 60 197 -18 q 3 275 3 139 q 118 563 3 442 q 400 684 233 684 q 594 618 522 684 q 667 431 667 553 q 662 371 667 401 q 655 324 658 342 l 403 324 l 224 324 q 222 299 222 312 q 222 276 222 285 l 222 260 q 272 124 222 172 q 411 77 323 77 q 607 143 515 77 l 622 125 q 569 32 589 72 q 336 -18 451 -18 m 574 756 l 451 886 l 273 756 l 202 756 l 411 1003 l 525 1003 l 630 756 l 574 756 m 365 396 l 461 396 q 477 512 477 446 q 455 588 477 553 q 397 622 433 622 q 290 553 327 622 q 238 396 254 484 l 365 396 "},"δ":{"x_min":6,"x_max":755.78125,"ha":763,"o":"m 170 824 q 260 977 170 928 q 465 1027 351 1027 q 612 1006 543 1027 q 755 946 680 986 q 714 871 725 892 q 690 813 704 850 l 670 813 q 609 905 654 870 q 503 941 564 941 q 409 907 449 941 q 369 821 369 874 q 451 678 369 739 q 615 560 534 617 q 703 360 703 479 q 589 94 703 207 q 325 -18 475 -18 q 94 43 183 -18 q 6 241 6 105 q 98 487 6 386 q 336 621 190 589 q 215 703 261 654 q 170 824 170 751 m 212 178 q 233 86 212 124 q 304 49 254 49 q 444 177 398 49 q 490 424 490 305 q 465 518 490 475 q 393 561 441 561 q 292 495 326 561 q 235 340 258 429 q 212 178 212 250 "},"έ":{"x_min":-5,"x_max":691,"ha":658,"o":"m 545 484 l 531 484 q 486 580 521 547 q 387 613 450 613 q 307 583 340 613 q 275 504 275 553 q 309 425 275 454 q 438 397 344 397 q 426 365 429 379 q 418 315 424 351 q 383 321 401 321 q 345 321 365 321 q 243 286 285 321 q 201 192 201 251 q 244 92 201 130 q 353 54 288 54 q 471 86 418 54 q 556 177 523 119 l 569 172 q 566 143 567 156 q 564 113 564 130 q 567 74 564 98 q 571 44 571 49 q 450 0 518 13 q 310 -14 382 -14 q 90 30 185 -14 q -5 184 -5 74 q 49 307 -5 265 q 188 359 103 350 q 117 414 143 381 q 92 494 92 447 q 173 636 92 589 q 358 684 255 684 q 478 663 419 684 q 590 606 536 643 q 564 542 571 558 q 545 484 557 527 m 329 757 l 535 971 q 577 1005 556 992 q 623 1019 599 1019 q 670 995 649 1019 q 691 946 691 971 q 674 906 691 922 q 631 874 658 890 l 396 757 l 329 757 "},"ω":{"x_min":6,"x_max":1056,"ha":1119,"o":"m 248 -12 q 71 52 137 -12 q 6 227 6 116 q 75 463 6 347 q 251 664 144 580 q 301 664 266 664 q 354 664 336 664 q 416 665 394 664 q 450 667 439 667 q 274 436 339 561 q 210 173 210 311 q 228 89 210 125 q 289 53 246 53 q 410 188 378 53 q 461 509 441 323 l 572 509 l 685 509 q 633 336 654 416 q 600 167 613 256 l 600 131 l 600 95 q 650 54 610 58 q 795 171 754 54 q 837 421 837 288 q 818 543 837 486 q 761 667 799 600 q 814 664 803 664 q 853 664 824 664 q 906 664 871 664 q 958 664 940 664 q 1030 548 1004 607 q 1056 423 1056 488 q 946 121 1056 256 q 673 -14 837 -14 q 555 13 607 -14 q 483 101 504 41 q 381 17 444 47 q 248 -12 318 -12 "},"´":{"x_min":72.609375,"x_max":424,"ha":374,"o":"m 72 517 l 226 849 q 274 930 250 908 q 326 952 297 952 q 393 931 362 952 q 424 878 424 911 q 406 822 424 851 q 365 765 389 792 l 100 493 l 72 517 "},"±":{"x_min":169,"x_max":968,"ha":1136,"o":"m 636 816 l 636 598 l 968 598 l 968 466 l 636 466 l 636 248 l 501 248 l 501 466 l 169 466 l 169 598 l 501 598 l 501 816 l 636 816 m 968 132 l 968 0 l 169 0 l 169 132 l 968 132 "},"|":{"x_min":272,"x_max":412,"ha":683,"o":"m 412 957 l 412 450 l 272 450 l 272 957 l 412 957 m 412 273 l 412 -233 l 272 -233 l 272 273 l 412 273 "},"ϋ":{"x_min":33,"x_max":743,"ha":810,"o":"m 743 490 q 612 137 743 288 q 283 -14 481 -14 q 108 30 183 -14 q 33 167 33 74 q 75 447 33 248 q 118 669 118 647 q 169 665 140 665 q 226 665 199 665 q 300 665 263 665 q 345 669 331 668 q 270 387 306 538 q 234 153 234 235 q 247 85 234 112 q 299 51 261 57 q 488 161 427 51 q 550 412 550 271 q 537 537 550 477 q 496 657 524 597 q 582 657 535 657 q 706 669 628 657 q 733 584 724 631 q 743 490 743 537 m 324 974 q 392 946 366 974 q 418 879 418 919 q 391 812 418 838 q 324 786 365 786 q 256 812 284 786 q 229 880 229 838 q 256 947 229 921 q 324 974 284 974 m 578 974 q 645 946 617 974 q 673 877 673 918 q 646 811 673 836 q 579 786 620 786 q 511 812 539 786 q 484 880 484 838 q 510 947 484 921 q 578 974 536 974 "},"§":{"x_min":24.890625,"x_max":691.109375,"ha":751,"o":"m 73 55 l 98 55 q 174 -69 124 -21 q 299 -118 224 -118 q 382 -93 346 -118 q 419 -23 419 -69 q 330 97 419 39 q 155 210 241 155 q 61 379 61 285 q 101 500 61 445 q 205 587 141 554 q 172 647 184 615 q 161 712 161 679 q 247 884 161 819 q 445 949 334 949 q 572 930 512 949 q 691 872 632 911 q 635 731 654 808 l 611 731 q 550 833 597 793 q 439 874 503 874 q 355 846 395 874 q 315 778 315 819 q 405 664 315 721 q 584 555 496 608 q 680 384 680 480 q 643 269 680 316 q 540 171 607 223 q 572 110 560 141 q 584 45 584 80 q 493 -132 584 -69 q 280 -196 402 -196 q 148 -174 210 -196 q 24 -111 85 -152 q 57 -7 49 -30 q 73 55 65 16 m 540 287 q 394 452 540 361 q 243 550 248 544 q 204 499 210 509 q 199 468 199 488 q 345 316 199 409 q 496 217 491 223 q 540 287 535 244 "},"b":{"x_min":-21.890625,"x_max":755,"ha":826,"o":"m 192 1026 q 305 1019 251 1019 q 418 1026 358 1019 q 395 948 405 987 q 365 825 385 908 l 314 597 q 403 663 355 639 q 508 688 451 688 q 688 611 621 688 q 755 418 755 535 q 649 115 755 247 q 376 -17 543 -17 q 157 85 239 -17 q 98 51 122 70 q 21 -12 73 32 l -21 0 q 105 524 53 281 q 192 1026 157 766 m 242 192 q 269 101 242 141 q 346 62 297 62 q 494 193 447 62 q 542 448 542 324 q 514 550 542 505 q 432 596 487 596 q 326 532 360 596 q 267 363 293 469 q 248 271 255 308 q 242 192 242 235 "},"q":{"x_min":15,"x_max":799.828125,"ha":830,"o":"m 422 -90 l 460 76 q 369 6 426 30 q 251 -18 313 -18 q 78 57 142 -18 q 15 241 15 132 q 107 541 15 404 q 353 678 199 678 q 473 650 417 678 q 567 572 529 622 q 576 618 570 583 q 583 666 581 652 q 648 659 619 662 q 695 657 677 657 q 751 661 720 657 q 799 666 783 665 q 673 150 742 483 q 580 -373 604 -182 q 522 -368 551 -369 q 465 -366 494 -366 q 411 -366 440 -366 q 348 -373 383 -366 q 384 -241 363 -322 q 422 -90 405 -161 m 236 201 q 263 122 236 155 q 338 89 291 89 q 488 213 447 89 q 529 474 529 338 q 501 557 529 522 q 426 593 473 593 q 329 545 367 593 q 267 409 290 498 q 240 282 245 320 q 236 201 236 244 "},"Ω":{"x_min":-68.453125,"x_max":1106.890625,"ha":1147,"o":"m 47 418 q 216 803 47 655 q 629 952 385 952 q 966 850 840 952 q 1093 543 1093 749 q 1031 299 1093 414 q 865 109 970 184 q 972 114 919 109 q 1106 131 1026 120 q 1093 2 1093 70 l 856 2 l 594 2 l 612 89 q 796 273 743 140 q 850 573 850 407 q 793 779 850 696 q 620 863 737 863 q 371 705 447 863 q 296 348 296 547 q 329 186 296 256 q 440 90 362 116 l 420 1 q 248 1 336 1 q 74 1 161 1 l -68 1 q -49 127 -49 65 q 66 118 2 118 q 183 118 130 118 q 81 253 115 180 q 47 418 47 326 "},"ύ":{"x_min":33,"x_max":747,"ha":810,"o":"m 743 490 q 612 137 743 288 q 283 -14 481 -14 q 108 30 183 -14 q 33 167 33 74 q 75 447 33 248 q 118 669 118 647 q 169 665 140 665 q 226 665 199 665 q 300 665 263 665 q 345 669 331 668 q 270 387 306 538 q 234 153 234 235 q 247 85 234 112 q 299 51 261 57 q 488 161 427 51 q 550 412 550 271 q 537 537 550 477 q 497 657 524 597 q 582 657 536 657 q 706 669 629 657 q 733 584 724 631 q 743 490 743 537 m 387 757 l 591 971 q 634 1005 612 992 q 679 1019 656 1019 q 726 995 705 1019 q 747 946 747 971 q 731 906 747 922 q 688 874 715 890 l 453 757 l 387 757 "},"Ö":{"x_min":33,"x_max":1080,"ha":1115,"o":"m 33 394 q 191 787 33 623 q 575 952 349 952 q 941 858 802 952 q 1080 547 1080 764 q 910 147 1080 308 q 502 -14 741 -14 q 374 -5 432 -14 q 236 36 316 2 q 94 172 156 70 q 33 394 33 273 m 576 1254 q 643 1226 615 1254 q 672 1160 672 1199 q 644 1094 672 1123 q 577 1066 617 1066 q 511 1093 540 1066 q 482 1160 482 1121 q 509 1226 482 1198 q 576 1254 537 1254 m 833 1254 q 898 1226 870 1254 q 926 1160 926 1198 q 898 1095 926 1124 q 833 1066 870 1066 q 765 1093 794 1066 q 736 1160 736 1121 q 764 1226 736 1199 q 833 1254 792 1254 m 283 362 q 336 156 283 237 q 509 76 389 76 q 756 231 675 76 q 838 569 838 387 q 780 777 838 692 q 606 862 722 862 q 400 758 477 862 q 303 546 324 654 q 283 362 283 437 "},"z":{"x_min":-37,"x_max":669,"ha":670,"o":"m 265 4 q 122 4 228 4 q -37 4 15 4 l -37 69 q 131 261 67 186 q 245 397 195 336 q 382 575 296 459 q 93 558 238 575 l 110 663 q 249 663 156 663 q 389 663 342 663 q 528 663 435 663 q 669 663 621 663 l 669 588 q 449 353 557 475 q 236 103 340 232 l 606 103 q 594 52 597 75 q 591 4 591 30 q 437 4 554 4 q 265 4 320 4 "},"™":{"x_min":137,"x_max":965,"ha":1137,"o":"m 461 976 l 461 901 l 349 901 l 349 611 l 248 611 l 248 901 l 137 901 l 137 976 l 461 976 m 666 976 l 751 753 l 833 976 l 965 976 l 965 612 l 872 612 l 872 884 l 772 612 l 731 612 l 625 884 l 625 612 l 536 612 l 536 976 l 666 976 "},"ή":{"x_min":-13.953125,"x_max":790,"ha":809,"o":"m 126 666 q 176 665 143 666 q 226 664 209 664 q 290 664 245 664 q 336 664 334 664 q 321 620 324 633 q 312 580 318 608 q 423 653 362 626 q 547 681 484 681 q 680 639 627 681 q 733 519 733 598 q 727 460 733 491 q 713 398 721 430 l 656 155 q 597 -118 627 23 q 554 -374 567 -260 q 445 -366 501 -366 q 329 -374 386 -366 q 364 -241 345 -316 q 413 -25 383 -166 l 474 250 q 503 375 488 312 q 518 492 518 438 q 499 549 518 526 q 445 572 480 572 q 292 448 324 572 q 209 2 261 324 q 145 2 190 2 q 98 2 99 2 q 33 2 79 2 q -13 2 -11 2 q 58 316 26 161 q 126 666 90 471 m 430 757 l 634 970 q 678 1005 656 993 q 723 1018 699 1018 q 769 994 748 1018 q 790 945 790 970 q 774 906 790 922 q 731 873 758 890 l 497 757 l 430 757 "},"Θ":{"x_min":33,"x_max":1080,"ha":1116,"o":"m 33 387 q 201 793 33 635 q 617 952 369 952 q 952 851 825 952 q 1080 547 1080 750 q 912 145 1080 304 q 502 -14 745 -14 q 371 -7 424 -14 q 237 33 317 0 q 95 167 157 68 q 33 387 33 266 m 282 359 q 336 155 282 236 q 509 75 391 75 q 757 229 677 75 q 838 569 838 383 q 783 778 838 694 q 607 863 728 863 q 401 758 478 863 q 303 546 324 654 q 282 359 282 437 m 574 530 q 684 530 614 530 q 767 530 753 530 q 751 475 758 507 q 739 410 743 443 q 631 410 699 410 q 549 410 563 410 q 454 410 503 410 q 358 407 405 410 q 371 460 366 436 q 384 530 376 485 q 492 530 424 530 q 574 530 560 530 "},"®":{"x_min":72,"x_max":1065,"ha":1137,"o":"m 1065 490 q 919 139 1065 285 q 569 -6 773 -6 q 220 141 369 -6 q 72 490 72 288 q 220 837 72 690 q 569 985 369 985 q 918 839 771 985 q 1065 490 1065 694 m 155 490 q 277 199 155 323 q 567 75 400 75 q 858 197 734 75 q 983 488 983 320 q 861 781 983 658 q 568 904 739 904 q 277 781 400 904 q 155 490 155 658 m 577 775 q 742 740 670 775 q 814 624 814 706 q 780 527 814 569 q 694 467 747 485 l 815 224 l 668 224 l 560 448 l 497 448 l 497 224 l 361 224 l 361 775 l 577 775 m 497 529 l 562 529 q 643 546 611 529 q 675 608 675 563 q 657 658 675 637 q 609 684 640 680 q 555 690 586 690 l 497 690 l 497 529 "},"É":{"x_min":-2.84375,"x_max":733.4375,"ha":699,"o":"m 184 928 q 311 928 224 928 q 441 928 397 928 q 587 928 490 928 q 733 928 684 928 q 701 809 708 877 q 597 824 645 819 q 498 829 549 829 l 399 829 q 385 779 393 810 q 366 703 377 747 l 338 548 l 456 548 q 547 548 486 548 q 638 548 608 548 q 624 495 631 536 q 618 432 618 453 q 541 437 598 432 q 456 442 484 442 l 318 442 l 280 265 q 265 193 274 244 q 252 112 256 143 q 413 112 344 112 q 591 125 483 112 q 574 66 581 99 q 561 4 566 33 q 415 4 516 4 q 268 4 313 4 q 131 4 222 4 q -2 4 41 4 q 108 455 61 216 q 184 928 156 694 m 349 1037 l 556 1249 q 599 1284 576 1270 q 643 1298 622 1298 q 690 1274 666 1298 q 714 1225 714 1250 q 697 1185 714 1202 q 651 1153 680 1168 l 418 1037 l 349 1037 "},"~":{"x_min":268,"x_max":1092,"ha":1366,"o":"m 1092 939 q 1034 721 1092 807 q 848 635 976 635 q 660 719 758 635 q 518 803 562 803 q 427 755 452 803 q 403 635 403 708 l 268 635 q 327 849 268 762 q 509 936 387 936 q 695 851 598 936 q 847 767 793 767 q 934 816 911 767 q 957 939 957 865 l 1092 939 "},"Ε":{"x_min":-3.21875,"x_max":732.546875,"ha":699,"o":"m 184 928 q 312 928 227 928 q 439 928 396 928 q 586 928 489 928 q 732 928 684 928 q 709 872 717 900 q 702 812 702 844 q 598 824 650 819 q 498 829 546 829 l 399 829 q 382 768 391 802 q 366 703 373 734 l 338 547 l 457 547 q 561 547 496 547 q 638 547 625 547 q 624 494 630 533 q 619 431 619 455 q 529 435 585 431 q 456 440 473 440 l 317 440 l 278 265 q 253 118 262 188 q 443 118 316 118 q 591 118 570 118 q 574 64 582 101 q 562 4 566 27 q 414 4 516 4 q 267 4 313 4 q 132 4 223 4 q -3 4 42 4 q 108 456 60 216 q 184 928 156 697 "},"³":{"x_min":-11.4375,"x_max":441,"ha":492,"o":"m 83 503 q 101 416 83 441 q 155 391 120 391 q 227 428 202 391 q 259 518 253 466 q 238 585 259 554 q 184 616 217 616 l 144 616 q 149 638 148 627 q 151 666 151 649 l 182 662 q 267 696 232 662 q 302 780 302 731 q 283 839 302 814 q 232 864 265 864 q 175 835 195 864 q 149 764 156 807 l 134 750 q 113 785 124 767 q 76 836 102 804 q 161 886 116 871 q 260 902 206 902 q 384 874 328 902 q 441 786 441 847 q 397 689 441 720 q 277 645 353 657 l 277 636 q 372 595 336 624 q 408 511 408 567 q 341 384 408 426 q 183 342 274 342 q 73 357 121 342 q -11 411 24 372 l 66 509 l 83 503 "},"[":{"x_min":-11.109375,"x_max":531.9375,"ha":446,"o":"m 212 932 q 319 932 247 932 q 427 932 391 932 l 531 932 q 522 903 527 923 q 513 852 518 883 q 442 858 462 858 q 409 858 422 858 l 359 858 q 259 413 306 644 q 163 -91 212 182 l 222 -91 q 270 -89 251 -91 q 312 -85 288 -88 l 295 -158 l 148 -158 l -11 -158 q 61 179 27 20 q 136 542 95 339 q 212 932 177 746 "},"L":{"x_min":0.109375,"x_max":587.390625,"ha":630,"o":"m 264 118 q 429 118 312 118 q 587 118 547 118 q 567 60 574 91 q 561 3 561 29 q 347 3 497 3 q 187 3 198 3 l 0 3 q 82 338 51 205 q 142 629 112 471 q 187 932 172 787 q 260 925 229 928 q 312 922 291 922 q 379 926 343 922 q 437 931 416 931 q 350 631 390 772 q 286 365 309 489 q 264 118 264 241 "},"σ":{"x_min":6,"x_max":843.453125,"ha":802,"o":"m 728 403 q 604 103 728 228 q 305 -21 480 -21 q 87 56 168 -21 q 6 269 6 133 q 117 559 6 432 q 389 687 229 687 q 526 675 421 687 q 671 663 632 663 q 772 663 712 663 q 843 663 832 663 q 827 602 830 620 q 824 555 824 584 l 734 555 l 686 555 q 728 403 728 487 m 212 195 q 235 93 212 138 q 307 48 258 48 q 463 199 412 48 q 514 487 514 351 q 491 585 514 543 q 416 627 469 627 q 304 553 343 627 q 246 398 265 479 q 219 279 226 318 q 212 195 212 241 "},"ζ":{"x_min":17,"x_max":736,"ha":706,"o":"m 228 306 q 330 206 228 226 q 530 169 432 186 q 638 28 638 135 q 585 -114 638 -51 q 448 -237 533 -177 l 394 -191 q 458 -127 439 -151 q 478 -69 478 -103 q 327 3 478 -19 q 96 56 176 26 q 17 201 17 86 q 91 467 17 343 q 260 682 165 592 q 521 905 355 772 q 351 905 411 905 q 209 895 291 905 q 226 959 219 923 q 239 1022 233 995 q 378 1022 284 1022 q 504 1022 471 1022 q 736 1027 631 1022 l 736 952 q 499 770 611 870 q 307 548 387 670 q 228 306 228 426 "},"θ":{"x_min":12,"x_max":702,"ha":737,"o":"m 12 321 q 117 722 12 535 q 421 910 223 910 q 635 814 568 910 q 702 566 702 719 q 595 168 702 354 q 292 -17 488 -17 l 256 -17 q 69 88 126 -4 q 12 321 12 180 m 519 723 q 497 810 519 774 q 427 847 476 847 q 310 750 342 847 q 251 493 277 654 l 327 493 q 406 493 353 493 q 484 493 459 493 q 505 608 491 540 q 519 723 519 676 m 351 415 l 236 415 q 213 288 227 364 q 200 158 200 213 q 220 81 200 112 q 283 50 240 50 q 406 130 381 50 q 466 415 431 211 l 351 415 "},"Ο":{"x_min":35,"x_max":1081,"ha":1117,"o":"m 35 393 q 193 787 35 623 q 576 952 351 952 q 942 858 803 952 q 1081 547 1081 764 q 912 147 1081 308 q 504 -14 744 -14 q 373 -7 428 -14 q 238 34 319 0 q 96 170 157 69 q 35 393 35 270 m 282 361 q 336 156 282 237 q 511 75 390 75 q 759 230 678 75 q 841 571 841 386 q 783 778 841 693 q 608 863 725 863 q 402 758 479 863 q 303 546 325 654 q 282 361 282 439 "},"Γ":{"x_min":-2.5,"x_max":741.953125,"ha":650,"o":"m 429 927 q 600 927 490 927 q 741 927 710 927 q 718 870 726 897 q 710 813 710 842 q 605 825 655 821 q 503 830 554 830 l 400 830 q 380 761 390 799 q 366 704 371 724 l 323 485 q 280 247 297 364 q 248 0 262 130 q 171 7 205 7 q 118 7 137 7 q 53 3 89 7 q -2 0 16 0 q 66 268 5 36 q 156 651 128 500 q 185 932 185 802 q 429 927 300 927 "}," ":{"x_min":0,"x_max":0,"ha":375},"%":{"x_min":31,"x_max":1036,"ha":1076,"o":"m 297 911 q 446 861 383 911 q 509 727 509 812 q 427 548 509 621 q 239 475 346 475 q 92 524 154 475 q 31 657 31 573 q 55 763 31 703 q 147 867 79 823 q 297 911 214 911 m 127 -125 l 844 1016 l 927 1016 l 212 -125 l 127 -125 m 823 413 q 973 362 911 413 q 1036 226 1036 311 q 954 50 1036 122 q 765 -22 872 -22 q 616 25 676 -22 q 557 160 557 73 q 582 264 557 204 q 672 368 608 324 q 823 413 737 413 m 693 111 q 710 51 693 75 q 761 28 727 28 q 868 112 834 28 q 903 280 903 196 q 900 303 903 291 q 891 329 897 315 q 868 351 886 343 q 832 360 850 360 q 756 318 784 360 q 709 215 729 276 q 697 158 701 179 q 693 111 693 137 m 164 610 q 182 553 164 578 q 232 528 201 528 q 341 611 307 528 q 376 782 376 694 q 356 838 376 814 q 306 862 336 862 q 228 820 256 862 q 187 729 201 778 q 168 662 172 681 q 164 610 164 643 "},"P":{"x_min":-0.28125,"x_max":822,"ha":830,"o":"m 188 930 l 309 930 l 471 930 q 721 879 621 930 q 822 693 822 829 q 699 467 822 538 q 413 396 577 396 q 316 401 359 396 l 288 268 q 246 0 258 116 q 173 7 192 5 q 119 10 153 10 q 56 6 88 10 q 0 0 24 3 q 85 322 40 151 q 159 647 130 493 q 188 930 188 801 m 363 491 q 533 553 477 491 q 590 730 590 615 q 548 818 590 788 q 444 848 506 848 l 416 848 q 396 781 403 809 q 384 724 388 753 l 333 491 l 363 491 "},"Ώ":{"x_min":-44.15625,"x_max":1315.890625,"ha":1356,"o":"m 256 418 q 425 803 256 655 q 838 952 594 952 q 1175 850 1049 952 q 1302 543 1302 749 q 1240 299 1302 414 q 1074 109 1179 184 q 1181 114 1128 109 q 1315 131 1235 120 q 1302 2 1302 70 l 1065 2 l 803 2 l 821 89 q 1005 273 952 140 q 1059 573 1059 407 q 1002 779 1059 696 q 829 863 946 863 q 580 705 656 863 q 505 348 505 547 q 538 186 505 256 q 649 90 571 116 l 629 1 q 457 1 545 1 q 283 1 370 1 l 140 1 q 160 127 160 65 q 275 118 211 118 q 392 118 339 118 q 290 253 324 180 q 256 418 256 326 m -44 757 l 160 971 q 203 1005 180 992 q 247 1018 225 1018 q 295 994 274 1018 q 316 946 316 971 q 299 906 316 922 q 257 874 283 890 l 22 757 l -44 757 "},"Έ":{"x_min":-44.71875,"x_max":1010.546875,"ha":977,"o":"m 462 928 q 590 928 505 928 q 717 928 674 928 q 864 928 767 928 q 1010 928 962 928 q 987 872 995 900 q 980 812 980 844 q 876 824 928 819 q 776 829 824 829 l 677 829 q 660 768 669 802 q 644 704 651 734 l 616 547 l 735 547 q 839 547 774 547 q 916 547 903 547 q 902 494 908 533 q 897 431 897 455 q 807 435 863 431 q 734 440 751 440 l 595 440 l 556 265 q 531 118 540 188 q 721 118 594 118 q 869 118 848 118 q 852 64 860 101 q 840 4 844 27 q 692 4 794 4 q 545 4 591 4 q 410 4 501 4 q 274 4 320 4 q 386 456 338 216 q 462 928 434 697 m -44 757 l 159 971 q 202 1005 180 992 q 246 1019 224 1019 q 294 995 273 1019 q 315 946 315 971 q 299 906 315 922 q 256 873 283 890 l 21 757 l -44 757 "},"_":{"x_min":0,"x_max":683,"ha":683,"o":"m 683 -184 l 683 -322 l 0 -322 l 0 -184 l 683 -184 "},"Ϊ":{"x_min":8.546875,"x_max":599,"ha":457,"o":"m 259 0 q 184 5 236 0 q 123 10 133 10 q 70 5 111 10 q 8 0 29 0 q 99 324 51 153 q 173 638 147 496 q 199 932 199 779 q 262 925 230 928 q 323 923 293 923 q 382 925 350 923 q 450 932 414 928 q 334 487 384 738 q 259 0 284 236 m 248 1254 q 314 1226 286 1254 q 343 1160 343 1199 q 316 1093 343 1121 q 250 1066 290 1066 q 181 1093 209 1066 q 153 1160 153 1120 q 182 1226 153 1198 q 248 1254 211 1254 m 503 1254 q 570 1226 542 1254 q 599 1160 599 1199 q 571 1093 599 1120 q 503 1066 544 1066 q 436 1092 462 1066 q 410 1160 410 1118 q 437 1226 410 1199 q 503 1254 464 1254 "},"+":{"x_min":169,"x_max":969,"ha":1137,"o":"m 636 814 l 636 474 l 969 474 l 969 342 l 636 342 l 636 0 l 501 0 l 501 342 l 169 342 l 169 474 l 501 474 l 501 814 l 636 814 "},"½":{"x_min":118.125,"x_max":1142,"ha":1170,"o":"m 258 801 q 196 781 229 794 q 132 752 163 769 q 128 778 132 766 q 118 809 125 790 q 238 842 190 826 q 403 901 286 858 l 426 890 q 357 644 386 765 q 305 392 329 524 l 227 392 l 155 392 q 221 610 194 509 q 258 801 248 710 m 1011 1015 l 255 -125 l 172 -125 l 923 1015 l 1011 1015 m 674 41 q 905 211 811 129 q 1000 383 1000 294 q 981 440 1000 416 q 930 465 962 465 q 868 431 890 465 q 847 357 847 398 l 840 348 l 758 422 q 845 486 794 465 q 957 508 897 508 q 1085 478 1028 508 q 1142 383 1142 448 q 1096 274 1142 318 q 842 100 1050 230 q 992 100 887 100 q 1103 100 1097 100 q 1088 55 1096 86 q 1075 1 1080 24 q 972 1 1041 1 q 867 1 902 1 q 765 1 834 1 q 661 1 696 1 q 674 41 674 16 "},"Ρ":{"x_min":-0.28125,"x_max":822,"ha":830,"o":"m 188 930 l 309 930 l 471 930 q 721 879 621 930 q 822 693 822 829 q 699 467 822 538 q 413 396 577 396 q 316 401 359 396 l 288 268 q 246 0 258 116 q 173 7 192 5 q 119 10 153 10 q 56 6 88 10 q 0 0 24 3 q 85 322 40 151 q 159 647 130 493 q 188 930 188 801 m 363 491 q 533 553 477 491 q 590 730 590 615 q 548 818 590 788 q 444 848 506 848 l 416 848 q 396 781 403 809 q 384 724 388 753 l 333 491 l 363 491 "},"'":{"x_min":71.21875,"x_max":424,"ha":375,"o":"m 71 518 l 226 850 q 274 929 250 907 q 326 952 297 952 q 394 932 364 952 q 424 879 424 913 q 406 822 424 851 q 364 765 389 792 l 100 494 l 71 518 "},"T":{"x_min":52.78125,"x_max":809.828125,"ha":696,"o":"m 263 574 l 309 823 q 177 823 266 823 q 52 823 87 823 q 69 877 63 838 q 75 927 75 917 q 249 927 122 927 q 440 927 376 927 q 633 927 504 927 q 809 927 762 927 q 795 895 801 915 q 789 856 789 875 l 789 816 q 548 828 669 828 q 448 421 490 633 q 384 0 407 208 q 315 6 352 2 q 256 9 277 9 q 188 4 226 9 q 129 0 150 0 q 197 256 168 126 q 263 574 227 386 "},"Φ":{"x_min":35,"x_max":1081,"ha":1117,"o":"m 574 -25 q 509 -17 543 -20 q 451 -14 475 -14 q 387 -18 429 -14 q 338 -25 345 -23 l 370 82 q 134 185 234 100 q 35 401 35 271 q 179 731 35 608 q 530 855 323 855 l 540 961 q 595 951 569 954 q 650 949 621 949 q 698 951 674 949 q 774 961 722 954 l 740 852 l 795 842 q 999 736 917 820 q 1081 532 1081 653 q 933 205 1081 333 q 585 78 785 78 q 578 25 582 58 q 574 -25 574 -8 m 859 568 q 822 694 859 639 q 717 749 785 749 q 656 477 686 619 q 597 176 626 335 q 797 302 736 191 q 859 568 859 412 m 254 382 q 287 247 254 303 q 394 184 320 191 q 455 457 426 316 q 514 758 484 598 q 318 633 383 742 q 254 382 254 525 "},"j":{"x_min":-189.21875,"x_max":380,"ha":394,"o":"m 266 1019 q 346 987 313 1019 q 380 909 380 955 q 347 830 380 863 q 269 798 314 798 q 190 829 223 798 q 158 907 158 860 q 188 987 158 955 q 266 1019 219 1019 m -189 -307 q -64 -267 -94 -307 q -19 -151 -33 -227 q 30 108 -4 -74 q 89 423 66 291 q 127 667 113 555 q 192 663 153 667 q 235 660 231 660 q 300 663 262 660 q 345 667 339 667 q 292 441 317 557 q 244 198 267 326 l 210 20 q 102 -281 173 -191 q -165 -371 31 -371 l -189 -307 "},"Σ":{"x_min":-90.171875,"x_max":839,"ha":843,"o":"m 814 818 q 696 818 775 818 q 591 818 618 818 l 423 818 q 498 670 461 739 q 586 512 534 601 q 357 311 469 416 l 226 198 l 472 198 l 733 198 q 705 84 718 156 q 691 1 693 13 l 333 1 l -90 1 l -77 56 q 145 257 54 173 q 354 460 237 342 q 127 866 252 658 l 144 928 q 363 928 230 928 q 518 928 495 928 q 706 928 591 928 q 839 928 820 928 q 820 874 827 902 q 814 818 814 845 "},"1":{"x_min":137.171875,"x_max":626.0625,"ha":749,"o":"m 356 736 q 250 693 298 714 q 158 650 202 673 q 153 688 158 670 q 137 747 149 705 q 588 914 363 816 l 626 894 q 514 446 560 659 q 433 0 467 233 q 371 4 414 0 q 309 8 328 8 q 255 4 281 8 q 192 1 228 1 q 264 250 233 131 q 321 495 296 369 q 356 736 346 620 "},"ä":{"x_min":-10,"x_max":661,"ha":714,"o":"m 174 -14 q 42 32 94 -14 q -10 159 -10 79 q 60 319 -10 267 q 219 382 131 371 q 365 401 306 392 q 418 485 418 417 q 385 560 418 535 q 300 586 352 586 q 134 505 197 586 l 118 501 q 138 611 133 558 q 265 662 202 643 q 388 682 327 682 q 548 635 482 682 q 614 499 614 588 q 608 453 611 476 q 600 409 605 431 l 559 231 q 543 162 551 198 q 536 95 536 126 q 551 68 536 79 q 584 57 566 57 q 605 59 594 57 q 621 62 616 61 l 621 14 q 493 -10 562 -10 q 403 13 439 -10 q 352 87 367 37 q 280 11 326 37 q 174 -14 234 -14 m 313 974 q 380 946 352 974 q 408 878 408 918 q 381 811 408 837 q 313 785 355 785 q 245 811 273 785 q 218 878 218 837 q 245 946 218 918 q 313 974 273 974 m 567 974 q 633 946 605 974 q 661 878 661 918 q 635 811 661 837 q 569 785 610 785 q 500 811 528 785 q 473 878 473 837 q 500 946 473 918 q 567 974 528 974 m 189 177 q 205 115 189 141 q 255 90 222 90 q 356 194 335 90 q 383 327 377 299 q 249 290 302 327 q 189 177 195 253 "},"<":{"x_min":176,"x_max":961,"ha":1137,"o":"m 961 651 l 363 407 l 961 164 l 961 16 l 176 341 l 176 472 l 961 796 l 961 651 "},"£":{"x_min":-27.609375,"x_max":760.890625,"ha":748,"o":"m 154 268 q 167 344 164 303 q 171 435 171 384 q 106 435 151 435 q 59 435 61 435 q 76 517 72 473 q 125 517 93 517 q 172 517 157 517 q 278 805 194 699 q 537 912 362 912 q 658 899 604 912 q 760 854 713 886 q 698 674 723 765 l 672 679 q 640 795 672 748 q 541 842 608 842 q 407 747 437 842 q 378 519 378 652 q 494 519 408 519 q 615 519 580 519 q 600 477 605 501 q 596 423 596 452 q 371 437 486 437 q 321 291 359 354 q 212 189 282 227 l 530 189 l 685 189 q 650 95 663 144 q 638 1 638 46 l 321 1 q 115 1 240 1 q -27 1 -9 1 q -13 72 -22 21 q 0 156 -4 123 q 98 189 58 163 q 154 268 139 215 "},"¹":{"x_min":119.4375,"x_max":443.0625,"ha":493,"o":"m 266 794 q 202 774 234 787 q 136 743 169 761 q 119 803 130 771 q 270 849 201 826 q 418 903 340 872 l 443 892 q 315 357 366 634 l 234 357 q 197 357 215 357 q 158 355 180 357 q 232 607 208 518 q 266 794 256 697 "},"t":{"x_min":34.21875,"x_max":476.28125,"ha":442,"o":"m 95 592 q 59 592 77 592 q 34 589 44 589 q 50 671 50 625 q 115 666 77 666 l 146 666 l 171 840 q 273 869 227 853 q 387 917 318 886 l 402 899 q 365 754 369 769 q 348 667 362 739 l 394 667 l 476 667 q 465 629 469 652 q 461 584 461 607 q 364 589 412 589 l 332 589 q 255 255 270 327 q 241 125 241 183 q 263 77 241 92 q 324 62 286 62 q 356 64 344 62 q 384 68 369 66 l 364 12 q 212 -14 295 -14 q 86 26 135 -14 q 37 142 37 66 q 67 355 37 231 q 126 592 97 479 l 95 592 "},"λ":{"x_min":-75.328125,"x_max":581.71875,"ha":654,"o":"m 187 273 q 125 142 153 209 q 69 0 96 76 l 5 8 q -34 5 -11 8 q -75 0 -57 2 q 269 632 114 323 q 234 847 253 779 q 130 916 215 916 q 107 912 120 916 q 83 907 94 909 l 83 989 q 163 1015 118 1004 q 249 1027 208 1027 q 392 947 356 1027 q 447 708 428 867 q 500 364 465 548 q 581 4 535 180 l 469 4 q 409 3 442 4 q 347 0 376 2 q 340 148 347 85 q 294 475 334 211 l 187 273 "},"ù":{"x_min":25,"x_max":772.546875,"ha":809,"o":"m 630 3 q 572 3 614 3 q 528 3 530 3 q 466 3 510 3 q 418 3 422 3 q 443 85 436 38 q 334 13 396 40 q 207 -14 272 -14 q 75 27 126 -14 q 25 148 25 69 q 29 207 25 176 q 43 274 34 238 l 77 426 q 100 531 90 476 q 122 666 109 585 l 230 666 l 348 666 q 270 375 301 501 q 239 180 239 249 q 256 117 239 141 q 311 94 273 94 q 350 105 332 94 q 469 245 439 151 q 518 501 498 340 l 547 666 l 658 666 l 772 666 q 630 3 687 341 m 540 757 l 350 875 q 307 908 322 890 q 292 951 292 926 q 312 997 292 978 q 360 1017 333 1017 q 401 1005 385 1017 q 440 966 417 993 l 607 757 l 540 757 "},"W":{"x_min":51.71875,"x_max":1307.015625,"ha":1232,"o":"m 51 933 q 112 929 83 933 q 183 926 142 926 q 242 928 209 926 q 307 933 275 930 q 322 627 307 791 q 355 306 338 462 q 508 606 434 452 q 658 930 582 759 l 733 930 q 786 931 768 930 q 813 933 804 933 q 857 601 838 733 q 900 312 875 469 q 1037 619 973 465 q 1158 933 1101 773 q 1230 924 1194 928 q 1268 928 1243 924 q 1307 933 1293 933 q 1100 484 1208 728 q 888 0 991 241 q 808 8 848 4 q 768 5 790 8 q 725 0 745 2 q 687 318 705 188 q 634 615 669 448 q 536 423 595 541 q 428 201 477 305 q 334 0 379 98 q 283 4 312 0 q 248 8 254 8 q 199 4 229 8 q 167 0 169 0 q 151 290 167 147 q 106 604 135 433 q 51 933 78 776 "},"ï":{"x_min":-10.046875,"x_max":501,"ha":393,"o":"m 130 667 q 196 663 155 667 q 244 660 238 660 q 305 663 267 660 q 349 667 343 667 q 270 330 306 505 q 213 3 234 155 q 160 3 195 3 q 109 3 126 3 l -10 3 q 48 253 20 129 q 91 452 76 376 q 130 667 106 528 m 152 974 q 219 946 191 974 q 247 878 247 918 q 220 811 247 837 q 155 785 194 785 q 85 811 113 785 q 58 878 58 837 q 85 946 58 918 q 152 974 113 974 m 407 974 q 473 946 445 974 q 501 878 501 918 q 475 811 501 837 q 409 785 450 785 q 340 811 368 785 q 313 878 313 837 q 340 946 313 918 q 407 974 368 974 "},">":{"x_min":176,"x_max":962,"ha":1137,"o":"m 962 472 l 962 341 l 176 16 l 176 164 l 771 407 l 176 651 l 176 796 l 962 472 "},"v":{"x_min":21.21875,"x_max":693.453125,"ha":654,"o":"m 211 1 l 121 1 q 21 666 92 309 q 83 660 60 662 q 130 658 105 658 q 187 661 157 658 q 249 666 218 664 q 259 484 249 560 q 305 198 269 407 l 419 406 q 479 523 447 456 q 546 664 511 591 l 617 664 l 693 664 q 549 436 619 552 q 423 217 479 320 q 314 1 367 114 l 211 1 "},"τ":{"x_min":-37.5,"x_max":637.5,"ha":583,"o":"m 20 449 l 2 449 q -13 523 -5 494 q -37 584 -20 552 q 102 639 29 621 q 255 658 176 658 l 477 658 q 565 662 509 658 q 637 667 622 667 q 613 550 619 609 q 487 559 551 559 l 426 559 q 313 3 355 283 l 209 3 q 143 3 190 3 q 91 3 95 3 q 140 202 119 107 q 186 412 162 297 l 212 559 q 87 526 137 549 q 20 449 37 504 "},"û":{"x_min":25,"x_max":772.328125,"ha":808,"o":"m 630 3 q 572 3 614 3 q 527 3 530 3 q 466 3 509 3 q 418 3 422 3 q 443 85 436 38 q 334 13 395 40 q 206 -14 272 -14 q 75 27 126 -14 q 25 148 25 69 q 29 207 25 176 q 43 274 34 238 l 77 426 q 100 531 90 476 q 122 666 109 585 l 230 666 l 348 666 q 270 375 301 501 q 239 180 239 249 q 256 117 239 141 q 311 94 273 94 q 350 105 332 94 q 468 245 439 151 q 518 501 498 340 l 547 666 l 658 666 l 772 666 q 630 3 687 341 m 615 756 l 493 886 l 314 756 l 244 756 l 451 1003 l 565 1003 l 672 756 l 615 756 "},"ξ":{"x_min":4,"x_max":718.890625,"ha":727,"o":"m 434 531 q 277 480 344 531 q 210 344 210 430 q 324 214 210 247 q 538 169 431 191 q 655 26 655 132 q 602 -118 655 -63 q 477 -238 550 -173 l 424 -197 q 479 -131 464 -154 q 494 -74 494 -109 q 339 11 494 -24 q 94 94 185 47 q 4 279 4 141 q 81 474 4 405 q 295 581 159 542 q 192 661 232 611 q 152 776 152 711 q 251 961 152 896 q 475 1027 350 1027 q 599 1011 536 1027 q 718 966 661 995 q 685 904 698 929 q 653 826 673 878 l 636 826 q 591 914 628 881 q 495 948 553 948 q 390 891 425 948 q 355 761 355 835 q 395 652 355 692 q 505 613 436 613 l 530 613 q 552 613 541 613 q 575 616 568 616 l 550 517 q 482 527 509 524 q 434 531 455 531 "},"&":{"x_min":50,"x_max":913.328125,"ha":976,"o":"m 573 83 q 317 -18 463 -18 q 129 45 209 -18 q 50 215 50 109 q 122 402 50 323 q 310 543 194 480 q 259 648 272 610 q 247 726 247 687 q 324 888 247 825 q 502 952 401 952 q 661 906 593 952 q 730 775 730 861 q 676 641 730 690 q 527 551 623 592 q 688 273 605 403 q 769 389 739 328 q 814 532 799 451 l 835 535 q 877 466 864 485 q 913 422 889 447 q 725 212 835 305 l 863 0 l 775 7 q 691 7 725 7 q 617 0 658 7 l 573 83 m 622 782 q 597 849 622 824 q 529 874 572 874 q 460 843 484 874 q 436 767 436 812 q 451 690 436 730 q 492 612 467 650 q 583 685 545 639 q 622 782 622 730 m 342 475 q 264 405 293 446 q 235 308 235 364 q 290 173 235 237 q 416 110 345 110 q 538 153 481 110 q 342 475 433 316 "},"Λ":{"x_min":-92.109375,"x_max":782.890625,"ha":856,"o":"m 435 640 q 286 412 348 511 q 172 218 224 312 q 66 0 120 123 l -7 7 q -58 3 -26 7 q -92 0 -89 0 q 200 461 56 222 q 478 943 345 700 q 512 935 494 939 q 553 931 531 931 q 591 935 567 931 q 627 943 614 940 q 782 3 673 482 l 650 3 l 519 3 q 507 212 519 112 q 486 376 496 312 q 435 640 475 440 "},"I":{"x_min":8.65625,"x_max":451.71875,"ha":458,"o":"m 261 0 q 196 5 248 0 q 122 10 144 10 q 55 5 89 10 q 8 0 22 1 q 95 325 53 162 q 164 632 137 488 q 192 932 192 777 q 270 925 239 928 q 323 923 301 923 q 393 927 354 923 q 451 931 432 931 q 336 485 387 745 q 261 0 285 226 "},"G":{"x_min":36,"x_max":1034.15625,"ha":1024,"o":"m 716 422 q 780 417 753 417 q 832 417 806 417 q 893 417 857 417 q 956 422 930 417 q 904 236 927 339 q 866 29 882 133 q 695 -2 781 8 q 521 -14 609 -14 q 169 88 303 -14 q 36 402 36 190 q 217 801 36 651 q 652 952 399 952 q 852 933 757 952 q 1034 870 948 914 l 942 664 l 921 671 q 829 815 907 768 q 646 862 752 862 q 373 711 467 862 q 280 368 280 561 q 350 157 280 243 q 543 71 420 71 q 594 75 571 71 q 649 87 617 79 q 716 422 693 255 "},"ΰ":{"x_min":33,"x_max":782,"ha":810,"o":"m 743 490 q 612 137 743 288 q 283 -14 481 -14 q 108 30 183 -14 q 33 167 33 74 q 75 447 33 248 q 118 669 118 647 q 169 665 139 665 q 225 665 199 665 q 301 665 263 665 q 345 669 331 668 q 270 387 306 538 q 234 153 234 235 q 247 85 234 112 q 299 51 261 57 q 488 161 427 51 q 550 412 550 271 q 537 537 550 477 q 497 657 524 597 q 582 657 536 657 q 706 669 629 657 q 733 584 724 631 q 743 490 743 537 m 227 963 q 284 939 260 963 q 308 881 308 915 q 287 821 308 845 q 230 798 266 798 q 170 821 195 798 q 145 881 145 845 q 169 938 145 914 q 227 963 193 963 m 323 757 l 432 931 q 481 997 460 975 q 532 1019 502 1019 q 584 967 584 1019 q 569 924 584 945 q 533 886 555 903 l 377 757 l 323 757 m 701 963 q 758 939 734 963 q 782 881 782 915 q 760 823 782 849 q 704 798 738 798 q 645 822 672 798 q 618 881 618 846 q 641 939 618 915 q 701 963 665 963 "},"`":{"x_min":81,"x_max":435.15625,"ha":375,"o":"m 435 934 l 279 600 q 236 528 257 553 q 178 499 215 503 q 111 519 142 499 q 81 574 81 540 q 95 625 81 601 q 140 686 110 649 l 406 957 l 435 934 "},"Υ":{"x_min":40.109375,"x_max":813.71875,"ha":706,"o":"m 131 80 l 170 260 l 198 391 q 127 667 165 536 q 40 932 90 798 q 102 928 70 929 q 162 927 134 927 q 227 927 191 927 q 297 932 263 927 q 390 540 330 729 q 526 727 462 630 q 655 932 591 823 q 701 926 674 929 q 735 924 729 924 q 772 926 752 924 q 813 932 792 929 q 426 405 606 672 l 394 268 q 363 109 372 161 q 354 0 354 57 q 289 6 323 2 q 234 10 255 10 q 167 5 205 10 q 110 0 130 0 l 131 80 "},"r":{"x_min":-12.390625,"x_max":573.71875,"ha":585,"o":"m 125 667 q 186 663 145 667 q 232 660 226 660 q 291 662 259 660 q 327 667 316 667 q 307 600 316 632 q 286 520 298 568 l 301 520 q 405 646 357 612 q 507 680 454 680 q 537 678 526 680 q 573 673 548 677 q 548 572 558 624 q 539 469 539 520 q 444 488 489 488 q 233 225 273 488 q 212 0 218 58 q 148 3 186 0 q 102 7 109 7 q 37 3 79 7 q -12 0 -4 0 q 62 346 27 180 q 125 667 97 512 "},"x":{"x_min":-105.5625,"x_max":651.390625,"ha":631,"o":"m -18 1 q -70 1 -43 1 q -105 1 -98 1 q 43 152 -27 74 l 200 318 q 55 667 126 508 q 114 661 83 664 q 170 659 145 659 q 227 661 194 659 q 286 667 261 664 l 350 485 q 411 558 356 493 q 494 667 466 624 l 568 659 q 609 661 584 659 q 651 667 633 664 l 533 547 l 386 387 l 454 209 l 538 0 q 480 4 518 0 q 420 8 443 8 q 358 4 400 8 q 295 0 316 0 l 231 215 q 145 113 193 170 q 54 1 97 56 l -18 1 "},"è":{"x_min":3,"x_max":667,"ha":714,"o":"m 336 -18 q 100 60 197 -18 q 3 275 3 139 q 118 563 3 442 q 400 684 233 684 q 594 618 522 684 q 667 431 667 553 q 662 371 667 401 q 655 324 658 342 l 403 324 l 224 324 q 222 299 222 312 q 222 276 222 285 l 222 260 q 272 124 222 172 q 411 77 323 77 q 607 143 515 77 l 622 125 q 569 32 589 72 q 336 -18 451 -18 m 499 758 l 308 875 q 266 911 281 892 q 252 953 252 930 q 273 998 252 980 q 320 1017 295 1017 q 361 1005 345 1017 q 400 967 377 993 l 567 758 l 499 758 m 365 396 l 461 396 q 477 512 477 446 q 455 588 477 553 q 397 622 433 622 q 291 553 328 622 q 239 396 254 484 l 365 396 "},"μ":{"x_min":-87.390625,"x_max":772.328125,"ha":810,"o":"m 286 -14 q 242 -2 265 -14 q 204 27 219 9 q 164 -168 180 -86 q 132 -366 148 -249 q 77 -361 95 -361 q 22 -361 59 -361 q -16 -361 1 -361 q -87 -366 -34 -361 q 32 147 -34 -191 q 116 669 98 486 q 170 667 139 667 q 229 667 201 667 q 298 667 250 667 q 348 667 345 667 q 270 381 302 511 q 239 182 239 251 q 256 119 239 143 q 311 96 273 96 q 402 130 332 96 q 502 360 473 165 q 547 667 532 555 q 602 667 565 667 q 658 667 640 667 q 724 667 679 667 q 772 667 769 667 q 695 344 730 510 q 629 4 661 179 l 529 4 l 419 4 q 443 87 437 45 q 376 15 418 44 q 286 -14 334 -14 "},"÷":{"x_min":169,"x_max":968,"ha":1136,"o":"m 668 666 q 638 597 668 626 q 566 568 609 568 q 496 597 524 568 q 468 668 468 627 q 497 738 468 709 q 568 768 526 768 q 638 738 609 768 q 668 666 668 709 m 968 473 l 968 341 l 169 341 l 169 473 l 968 473 m 666 146 q 636 74 666 105 q 567 44 607 44 q 497 72 527 44 q 468 142 468 100 q 497 214 468 184 q 567 244 527 244 q 636 216 607 244 q 666 146 666 188 "},"h":{"x_min":-7.375,"x_max":733,"ha":809,"o":"m 199 1021 l 302 1021 q 358 1021 327 1021 q 416 1025 389 1022 l 367 828 l 316 581 q 421 654 371 628 q 527 681 470 681 q 674 640 616 681 q 733 514 733 600 q 711 362 733 457 q 665 160 689 267 q 635 3 641 54 q 573 3 617 3 q 528 3 530 3 q 462 3 509 3 q 413 3 414 3 q 489 299 460 176 q 519 488 519 421 q 502 547 519 522 q 450 573 485 573 q 410 561 428 573 q 294 429 324 518 q 216 0 263 340 q 153 3 192 0 q 105 7 113 7 q 41 3 81 7 q -7 0 0 0 q 106 528 52 267 q 199 1021 160 789 "},".":{"x_min":0,"x_max":235,"ha":375,"o":"m 118 216 q 203 183 172 216 q 235 98 235 150 q 203 14 235 46 q 118 -17 171 -17 q 31 13 63 -17 q 0 98 0 44 q 32 183 0 150 q 118 216 65 216 "},"φ":{"x_min":6,"x_max":973,"ha":1033,"o":"m 6 275 q 118 556 6 448 q 402 665 231 665 l 402 584 q 249 476 279 584 q 207 233 219 368 q 243 117 207 158 q 343 60 280 75 l 406 375 q 489 599 435 524 q 674 675 543 675 q 889 588 806 675 q 973 372 973 502 q 842 81 973 180 q 515 -18 711 -18 q 476 -202 496 -105 q 456 -373 456 -298 l 375 -365 q 247 -373 312 -365 q 330 -6 296 -181 q 103 70 200 -6 q 6 275 6 147 m 528 56 q 714 168 658 56 q 770 428 770 280 q 753 542 770 492 q 686 592 736 592 q 638 563 654 592 q 615 493 622 535 l 528 56 "},";":{"x_min":-75.5,"x_max":372,"ha":458,"o":"m 253 683 q 337 649 302 683 q 372 567 372 616 q 337 484 372 519 q 253 450 302 450 q 171 483 205 450 q 137 566 137 517 q 170 648 137 613 q 253 683 203 683 m 74 123 q 122 205 100 177 q 185 233 143 233 q 247 212 217 233 q 280 162 277 191 q 264 96 280 127 q 220 34 248 66 l -46 -254 l -75 -228 l 74 123 "},"f":{"x_min":0.4375,"x_max":599.046875,"ha":449,"o":"m 49 599 l 65 671 l 156 671 q 275 918 186 810 q 494 1027 364 1027 q 546 1020 521 1027 q 599 1000 571 1014 q 537 825 564 918 l 519 828 q 484 881 506 861 q 431 902 462 902 q 372 863 388 902 q 356 776 356 824 l 356 671 l 490 671 q 480 637 483 654 q 474 599 476 621 l 347 599 q 278 292 306 431 q 231 0 250 154 q 165 3 207 0 q 115 6 124 6 q 53 3 94 6 q 0 0 11 0 q 71 286 33 134 q 144 599 108 439 l 49 599 "},"“":{"x_min":81,"x_max":741.78125,"ha":685,"o":"m 434 934 l 279 600 q 235 522 254 546 q 178 499 216 499 q 112 521 144 499 q 81 572 81 543 q 96 625 81 600 q 140 686 111 650 l 405 957 l 434 934 m 741 934 l 587 600 q 544 524 564 549 q 487 499 525 499 q 421 521 454 499 q 389 572 389 543 q 406 628 389 599 q 448 686 423 658 l 714 957 l 741 934 "},"A":{"x_min":-93.5,"x_max":785.671875,"ha":856,"o":"m 519 35 q 511 148 519 89 q 496 265 503 206 q 341 275 416 275 q 265 270 306 275 q 200 265 224 265 q 115 111 137 151 q 60 3 94 71 l -8 3 q -44 1 -22 3 q -93 0 -67 0 q 96 292 6 150 q 274 578 187 434 q 491 939 362 722 l 555 934 q 589 936 570 934 q 617 939 607 938 l 664 619 q 701 394 681 515 q 739 188 721 273 q 785 0 756 103 q 701 10 734 7 q 648 13 669 13 q 598 10 621 13 q 519 0 575 7 l 519 35 m 332 364 l 484 364 q 467 530 473 479 q 448 672 462 581 q 349 518 403 604 q 256 364 295 432 l 332 364 "},"6":{"x_min":43,"x_max":678,"ha":749,"o":"m 445 537 q 609 468 541 537 q 678 304 678 400 q 581 70 678 162 q 343 -22 484 -22 q 122 62 201 -22 q 43 290 43 147 q 174 716 43 525 q 529 908 305 908 q 592 904 565 908 q 661 890 619 901 l 678 767 l 658 763 q 601 817 633 798 q 527 836 569 836 q 369 733 420 836 q 306 500 317 630 q 445 537 376 537 m 247 172 q 266 84 247 122 q 332 47 285 47 q 430 140 400 47 q 461 323 461 234 q 441 413 461 375 q 376 452 422 452 q 292 397 319 452 q 253 269 265 342 q 247 223 247 246 q 247 172 247 201 "},"‘":{"x_min":81,"x_max":433.765625,"ha":374,"o":"m 433 932 l 278 600 q 235 524 254 550 q 176 499 215 499 q 111 519 142 499 q 81 574 81 540 q 91 617 81 596 q 140 685 101 639 l 406 956 l 433 932 "},"ϊ":{"x_min":-9.546875,"x_max":515,"ha":393,"o":"m 129 667 q 244 660 189 660 q 304 663 266 660 q 351 667 342 667 q 271 333 304 490 q 212 3 239 176 l 109 3 q 41 3 89 3 q -9 3 -6 3 q 69 351 32 176 q 129 667 107 526 m 166 975 q 234 947 208 975 q 260 880 260 920 q 233 813 260 839 q 166 787 207 787 q 98 813 126 787 q 71 881 71 839 q 98 948 71 922 q 166 975 126 975 m 420 975 q 487 947 459 975 q 515 878 515 919 q 488 812 515 837 q 421 787 462 787 q 353 813 381 787 q 326 881 326 839 q 352 948 326 922 q 420 975 378 975 "},"π":{"x_min":-25.5,"x_max":970,"ha":926,"o":"m 32 449 l 12 449 q -25 584 12 513 q 119 641 39 624 q 285 659 199 659 l 488 659 l 782 659 q 866 659 820 659 q 970 667 913 659 q 950 610 956 635 q 945 550 945 585 q 879 557 910 557 q 806 557 849 557 l 785 557 q 726 285 753 424 q 677 3 699 146 l 572 3 q 504 3 552 3 q 453 3 456 3 q 547 413 503 190 l 575 559 l 410 559 q 347 283 377 428 q 298 3 318 139 l 195 3 q 125 3 173 3 q 74 3 77 3 q 127 211 102 107 q 170 413 152 315 l 196 559 q 91 523 135 549 q 32 449 46 497 "},"ά":{"x_min":6,"x_max":852.171875,"ha":891,"o":"m 278 -14 q 79 71 153 -14 q 6 284 6 157 q 128 567 6 450 q 415 684 250 684 q 654 539 582 684 q 688 665 675 600 l 770 665 l 852 665 q 789 521 817 590 q 718 340 761 451 q 798 1 745 170 l 635 1 l 564 1 q 557 68 564 34 q 548 122 551 102 q 428 21 496 56 q 278 -14 360 -14 m 388 757 l 591 970 q 635 1004 612 991 q 679 1018 657 1018 q 727 994 706 1018 q 748 945 748 970 q 731 906 748 922 q 689 873 715 890 l 454 757 l 388 757 m 426 628 q 258 475 308 628 q 209 173 209 323 q 231 84 209 118 q 308 50 254 50 q 479 169 420 62 q 538 397 538 276 q 530 503 538 457 q 508 577 522 550 q 468 619 494 604 q 426 628 449 628 "},"O":{"x_min":35,"x_max":1081,"ha":1117,"o":"m 35 393 q 193 787 35 623 q 576 952 351 952 q 942 858 803 952 q 1081 547 1081 764 q 912 147 1081 308 q 504 -14 744 -14 q 373 -7 428 -14 q 238 34 319 0 q 96 170 157 69 q 35 393 35 270 m 282 361 q 336 156 282 237 q 511 75 390 75 q 759 230 678 75 q 841 571 841 386 q 783 778 841 693 q 608 863 725 863 q 402 758 479 863 q 303 546 325 654 q 282 361 282 439 "},"n":{"x_min":-13.953125,"x_max":733,"ha":809,"o":"m 126 667 q 176 665 143 667 q 226 664 209 664 q 290 664 245 664 q 336 664 334 664 q 321 621 324 633 q 312 581 318 608 q 423 654 362 628 q 548 681 484 681 q 681 640 630 681 q 733 520 733 599 q 731 488 733 501 q 721 432 730 475 l 676 240 q 657 148 671 222 q 633 3 642 75 q 580 3 615 3 q 527 3 545 3 q 461 3 508 3 q 409 3 413 3 q 481 276 445 126 q 518 488 518 425 q 499 548 518 524 q 445 573 481 573 q 354 536 424 573 q 254 307 283 500 q 209 0 224 114 q 144 3 183 0 q 98 7 105 7 q 34 3 74 7 q -13 0 -5 0 q 58 317 26 162 q 126 667 90 472 "},"3":{"x_min":-16.671875,"x_max":672,"ha":748,"o":"m 125 249 q 151 112 125 168 q 250 56 177 56 q 361 130 326 56 q 396 288 396 204 q 365 390 396 346 q 279 434 334 434 l 262 434 l 221 434 q 231 517 231 473 q 260 515 240 515 q 297 515 280 515 q 417 571 373 515 q 461 708 461 628 q 435 806 461 765 q 355 847 409 847 q 266 801 293 847 q 226 681 239 755 l 203 662 q 115 806 172 735 q 235 885 168 859 q 383 911 302 911 q 584 866 497 911 q 672 719 672 822 q 603 560 672 616 q 423 482 534 503 l 422 470 q 566 400 512 450 q 620 264 620 350 q 523 50 620 122 q 279 -22 426 -22 q 106 3 183 -22 q -16 94 29 29 q 48 181 23 147 q 101 254 73 215 l 125 249 "},"9":{"x_min":40.5625,"x_max":714,"ha":749,"o":"m 40 157 l 65 160 q 121 75 85 106 q 215 44 158 44 q 373 137 326 44 q 453 387 419 230 q 394 364 433 373 q 325 354 354 354 q 149 416 214 354 q 85 591 85 478 q 184 820 85 731 q 426 910 284 910 q 641 825 568 910 q 714 595 714 741 q 576 167 714 356 q 208 -21 439 -21 q 139 -16 175 -21 q 65 -1 103 -11 q 40 157 48 76 m 513 709 q 494 801 513 763 q 428 840 476 840 q 330 746 361 840 q 299 566 299 653 q 323 466 299 497 q 386 435 347 435 q 468 494 439 435 q 504 619 497 552 q 513 709 513 665 "},"l":{"x_min":-8.328125,"x_max":419.4375,"ha":392,"o":"m 193 1025 q 309 1019 251 1019 q 349 1019 330 1019 q 419 1025 368 1019 q 299 506 352 768 q 211 0 245 243 q 145 3 184 0 q 101 7 106 7 q 37 3 76 7 q -8 0 -1 0 q 113 528 54 234 q 193 1025 172 821 "},"κ":{"x_min":-9.71875,"x_max":800,"ha":742,"o":"m 300 382 l 448 505 q 513 563 476 528 q 615 667 551 599 q 661 661 637 664 q 705 659 686 659 q 747 661 723 659 q 791 667 772 664 l 800 657 q 640 542 713 600 q 472 403 566 485 q 652 3 552 197 q 577 3 626 3 q 522 3 529 3 q 453 3 495 3 q 404 3 411 3 q 355 149 384 65 q 297 307 326 233 l 256 307 q 226 135 240 219 q 204 3 212 51 l 109 3 q 40 3 88 3 q -9 3 -6 3 q 69 351 31 176 q 129 667 106 526 q 243 660 187 660 q 300 663 263 660 q 344 667 336 667 q 301 501 325 599 q 275 389 277 403 l 300 382 "},"4":{"x_min":5.34375,"x_max":719.234375,"ha":749,"o":"m 355 221 q 180 221 297 221 q 5 221 63 221 q 26 300 17 264 q 40 385 34 337 q 197 552 120 468 q 342 711 274 636 q 517 906 410 786 l 612 906 q 678 906 645 906 q 719 909 706 907 q 591 384 644 640 l 623 384 q 677 386 658 384 q 706 389 697 389 q 672 215 672 307 q 592 221 615 221 q 555 221 569 221 l 517 0 q 465 4 499 0 q 412 8 430 8 q 356 4 392 8 q 302 0 320 0 q 328 104 313 44 q 355 221 342 165 m 392 382 q 433 564 412 470 q 473 750 455 658 q 237 475 283 525 q 152 382 192 425 q 272 382 212 382 q 392 382 331 382 "},"p":{"x_min":-98.609375,"x_max":755,"ha":829,"o":"m 299 574 q 393 652 345 624 q 497 681 442 681 q 686 612 618 681 q 755 422 755 544 q 663 123 755 261 q 418 -14 571 -14 q 220 101 284 -14 q 157 -144 189 -15 q 125 -375 125 -273 q 23 -367 75 -367 q -98 -375 -36 -367 q 24 147 -29 -105 q 119 666 77 400 q 182 659 154 662 q 226 657 211 657 q 270 659 245 657 q 317 665 295 662 l 299 574 m 542 472 q 516 559 542 520 q 444 598 490 598 q 302 470 349 598 q 255 219 255 342 q 280 130 255 169 q 352 92 306 92 q 454 151 419 92 q 515 306 489 210 q 539 413 536 396 q 542 472 542 431 "},"ψ":{"x_min":28,"x_max":1040,"ha":1112,"o":"m 490 -372 l 412 -364 q 280 -372 347 -364 q 330 -157 303 -289 q 362 -8 358 -26 q 124 80 221 8 q 28 286 28 152 q 30 339 28 318 q 46 428 33 361 l 76 575 l 89 671 q 197 666 137 666 q 244 666 218 666 q 315 671 269 666 q 248 436 272 539 q 224 236 224 333 q 265 118 224 162 q 380 61 307 73 l 429 311 q 485 606 469 518 q 512 803 501 693 l 591 795 q 722 803 655 795 q 655 519 690 686 q 614 310 620 351 l 566 53 q 774 164 706 53 q 843 428 843 275 q 835 523 843 474 q 809 659 827 572 q 1002 671 898 659 q 1029 570 1019 624 q 1040 468 1040 515 q 908 113 1040 241 q 550 -14 776 -14 q 516 -200 533 -102 q 490 -372 498 -297 "},"Ü":{"x_min":72,"x_max":1014,"ha":1006,"o":"m 305 923 q 426 932 364 923 q 361 704 394 822 q 306 472 327 586 q 285 259 285 358 q 333 140 285 183 q 458 97 382 97 q 585 119 529 97 q 691 201 641 142 q 775 387 740 261 q 833 661 811 513 q 873 932 855 808 q 944 926 912 926 q 1014 932 975 926 q 979 792 991 841 q 929 579 966 743 q 883 379 891 416 q 868 315 875 341 q 834 205 861 290 q 689 51 807 120 q 426 -18 572 -18 q 172 43 273 -18 q 72 250 72 105 q 95 438 72 304 q 146 716 119 573 q 181 932 173 859 q 305 923 243 923 m 540 1254 q 605 1226 577 1254 q 633 1160 633 1198 q 606 1093 633 1121 q 540 1066 580 1066 q 470 1092 498 1066 q 443 1160 443 1118 q 472 1226 443 1198 q 540 1254 501 1254 m 794 1254 q 861 1226 833 1254 q 889 1160 889 1198 q 861 1093 889 1120 q 794 1066 834 1066 q 726 1092 754 1066 q 699 1160 699 1118 q 727 1226 699 1199 q 794 1254 755 1254 "},"à":{"x_min":-10,"x_max":621,"ha":714,"o":"m 174 -14 q 42 32 94 -14 q -10 159 -10 79 q 60 319 -10 267 q 219 382 131 371 q 365 401 307 392 q 418 485 418 417 q 385 560 418 535 q 300 586 352 586 q 134 505 197 586 l 118 501 q 138 611 133 558 q 265 662 202 643 q 388 682 327 682 q 548 635 482 682 q 614 499 614 588 q 608 453 611 476 q 600 409 605 431 l 559 231 q 543 162 551 198 q 536 95 536 126 q 551 68 536 79 q 584 57 566 57 q 605 59 594 57 q 621 62 616 61 l 621 14 q 493 -10 562 -10 q 352 87 384 -10 q 280 11 326 37 q 174 -14 234 -14 m 486 757 l 297 875 q 254 910 269 893 q 239 951 239 927 q 259 997 239 978 q 306 1016 280 1016 q 348 1003 330 1016 q 386 966 366 990 l 555 757 l 486 757 m 189 177 q 205 115 189 141 q 255 90 222 90 q 356 194 336 90 q 383 327 377 299 q 249 290 302 327 q 189 177 195 253 "},"η":{"x_min":-13.953125,"x_max":733,"ha":809,"o":"m 126 666 q 176 665 143 666 q 226 664 209 664 q 290 664 245 664 q 336 664 334 664 q 321 620 324 633 q 312 580 318 608 q 423 653 362 626 q 547 681 484 681 q 680 639 627 681 q 733 519 733 598 q 727 460 733 491 q 713 398 721 430 l 656 155 q 597 -118 627 23 q 554 -374 567 -260 q 445 -366 501 -366 q 329 -374 386 -366 q 364 -241 345 -316 q 413 -25 383 -166 l 474 250 q 503 375 488 312 q 518 492 518 438 q 499 549 518 526 q 445 572 480 572 q 292 448 324 572 q 209 2 261 324 q 145 2 190 2 q 98 2 99 2 q 33 2 79 2 q -13 2 -11 2 q 58 316 26 161 q 126 666 90 471 "}}}
